<?xml version="1.0" standalone="no"?>
<!DOCTYPE svg PUBLIC "-//W3C//DTD SVG 20010904//EN"
 "http://www.w3.org/TR/2001/REC-SVG-20010904/DTD/svg10.dtd">
<svg version="1.0" xmlns="http://www.w3.org/2000/svg"
 width="1872.000000pt" height="976.000000pt" viewBox="0 0 1872.000000 976.000000"
 preserveAspectRatio="xMidYMid meet">

<g transform="translate(0.000000,976.000000) scale(0.100000,-0.100000)"
fill="#000000" stroke="none">
<path d="M18130 9579 c0 -36 -2 -40 -15 -29 -23 19 -18 -4 5 -25 19 -17 21
-17 40 0 23 21 28 44 5 25 -13 -11 -15 -7 -15 29 0 22 -4 41 -10 41 -5 0 -10
-19 -10 -41z"/>
<path d="M18463 9608 c-27 -13 -47 -59 -38 -88 23 -74 116 -81 145 -10 16 38
0 82 -36 99 -30 13 -42 13 -71 -1z m68 -9 c23 -12 42 -55 34 -78 -4 -13 -17
-17 -63 -17 -31 1 -60 6 -64 11 -14 19 -8 46 17 70 26 27 46 31 76 14z m4
-108 c7 -13 -30 -24 -55 -16 -28 9 -15 25 20 25 16 0 31 -4 35 -9z"/>
<path d="M18474 9565 c-4 -9 -2 -21 4 -27 16 -16 47 -5 47 17 0 26 -42 34 -51
10z m41 -4 c7 -12 -12 -24 -25 -16 -11 7 -4 25 10 25 5 0 11 -4 15 -9z"/>
<path d="M800 9580 c-11 -11 -20 -29 -20 -40 0 -26 34 -60 60 -60 20 0 66 38
57 47 -3 2 -15 -5 -26 -16 -12 -12 -25 -21 -31 -21 -13 0 -50 37 -50 50 0 12
37 50 48 50 4 0 14 -5 22 -10 13 -9 13 -11 0 -20 -12 -8 -9 -10 13 -10 23 0
27 4 27 28 0 16 -3 22 -8 15 -5 -8 -13 -9 -22 -3 -24 15 -48 12 -70 -10z"/>
<path d="M1221 9591 c-17 -11 -7 -41 13 -41 22 0 30 20 15 36 -9 8 -19 10 -28
5z m19 -21 c0 -5 -2 -10 -4 -10 -3 0 -8 5 -11 10 -3 6 -1 10 4 10 6 0 11 -4
11 -10z"/>
<path d="M17622 9580 c-7 -11 -22 -20 -34 -20 -20 0 -20 -1 -5 -18 10 -10 17
-29 17 -41 0 -19 3 -20 20 -11 14 8 26 8 40 0 17 -9 20 -8 20 11 0 12 7 31 17
41 15 17 15 18 -5 18 -12 0 -27 9 -34 20 -7 11 -15 20 -18 20 -3 0 -11 -9 -18
-20z m28 -20 c0 -5 8 -10 17 -10 13 0 14 -3 6 -11 -6 -6 -9 -17 -7 -23 2 -7
-7 -11 -25 -11 -16 0 -27 4 -24 8 3 4 -1 14 -7 22 -10 12 -9 15 4 15 9 0 16 5
16 10 0 6 5 10 10 10 6 0 10 -4 10 -10z"/>
<path d="M1486 9581 c-3 -5 3 -7 14 -4 27 7 27 -32 0 -47 -32 -17 -25 -40 13
-39 30 2 30 2 5 6 -33 5 -35 14 -7 31 13 8 19 21 17 35 -3 23 -32 35 -42 18z"/>
<path d="M1561 9543 c-1 -50 0 -53 24 -53 18 0 26 7 31 24 8 32 -3 49 -27 43
-12 -3 -19 2 -22 17 -2 11 -5 -3 -6 -31z m44 -19 c0 -10 -8 -20 -17 -22 -18
-3 -26 27 -11 42 12 11 28 0 28 -20z"/>
<path d="M2063 9540 c0 -30 2 -43 4 -27 2 15 2 39 0 55 -2 15 -4 2 -4 -28z"/>
<path d="M2214 9574 c-15 -13 -16 -15 -2 -10 14 4 18 -3 21 -37 3 -40 4 -39 5
11 1 28 1 52 -1 52 -2 0 -12 -7 -23 -16z"/>
<path d="M2344 9574 c-15 -13 -16 -15 -2 -10 14 4 18 -3 21 -37 3 -40 4 -39 5
11 1 28 1 52 -1 52 -2 0 -12 -7 -23 -16z"/>
<path d="M2412 9578 c-30 -30 -3 -98 33 -84 12 4 15 17 13 48 -3 45 -22 60
-46 36z m33 -39 c0 -24 -5 -34 -15 -34 -16 0 -25 37 -16 62 10 26 31 8 31 -28z"/>
<path d="M3060 9572 c0 -13 -7 -18 -22 -18 -19 1 -23 -4 -23 -29 0 -26 4 -30
28 -31 26 -1 27 1 27 47 0 27 -2 49 -5 49 -3 0 -5 -8 -5 -18z m-5 -47 c0 -11
-8 -21 -17 -23 -14 -3 -18 3 -18 23 0 20 4 26 18 23 9 -2 17 -12 17 -23z"/>
<path d="M1283 9573 c9 -2 23 -2 30 0 6 3 -1 5 -18 5 -16 0 -22 -2 -12 -5z"/>
<path d="M1643 9525 c0 -22 2 -30 4 -17 2 12 2 30 0 40 -3 9 -5 -1 -4 -23z"/>
<path d="M1682 9523 c1 -38 1 -38 5 -5 5 40 25 38 35 -4 6 -27 6 -27 5 6 -2
28 -6 36 -24 38 -21 3 -23 -1 -21 -35z"/>
<path d="M1747 9553 c6 -4 13 -22 16 -38 4 -27 5 -27 3 4 0 21 -7 36 -16 38
-10 3 -11 2 -3 -4z"/>
<path d="M1856 9551 c-3 -5 3 -7 14 -4 11 3 20 1 20 -5 0 -5 -9 -12 -20 -15
-30 -8 -25 -37 6 -37 23 0 25 3 22 32 -3 32 -29 50 -42 29z m34 -41 c0 -5 -7
-10 -15 -10 -8 0 -15 5 -15 10 0 6 7 10 15 10 8 0 15 -4 15 -10z"/>
<path d="M1916 9547 c3 -10 9 -15 12 -12 3 3 0 11 -7 18 -10 9 -11 8 -5 -6z"/>
<path d="M1956 9535 c-4 -14 -11 -23 -16 -20 -6 3 -10 2 -10 -4 0 -5 4 -12 9
-15 9 -6 37 51 29 60 -3 3 -9 -7 -12 -21z"/>
<path d="M1996 9551 c-3 -5 3 -7 14 -4 11 3 20 1 20 -5 0 -5 -9 -12 -20 -15
-30 -8 -25 -37 6 -37 23 0 25 3 22 32 -3 32 -29 50 -42 29z m34 -41 c0 -5 -7
-10 -15 -10 -8 0 -15 5 -15 10 0 6 7 10 15 10 8 0 15 -4 15 -10z"/>
<path d="M2103 9525 c0 -22 2 -30 4 -17 2 12 2 30 0 40 -3 9 -5 -1 -4 -23z"/>
<path d="M2150 9548 l25 -11 -25 -6 c-34 -9 -32 -35 3 -39 21 -3 27 1 27 17 0
34 -11 51 -34 50 -19 0 -19 -1 4 -11z m15 -38 c-3 -5 -13 -10 -21 -10 -8 0
-14 5 -14 10 0 6 9 10 21 10 11 0 17 -4 14 -10z"/>
<path d="M2483 9525 c8 -26 13 -32 21 -24 8 8 7 13 -1 16 -7 3 -13 11 -13 18
0 8 -4 16 -9 19 -5 4 -4 -10 2 -29z"/>
<path d="M2515 9550 c-4 -7 -3 -15 2 -19 5 -3 13 -15 17 -26 7 -19 8 -19 17
-2 6 10 8 23 5 30 -2 7 -5 3 -6 -8 -1 -16 -4 -15 -14 9 -9 20 -16 25 -21 16z"/>
<path d="M2611 9506 c1 -31 4 -43 7 -31 4 11 16 20 26 20 11 0 21 7 23 15 4
12 3 13 -5 1 -12 -17 -42 -7 -42 14 0 21 30 31 42 14 8 -12 9 -11 5 1 -2 8
-16 15 -30 16 -26 1 -27 -1 -26 -50z"/>
<path d="M2713 9553 c23 -6 22 -19 -4 -26 -26 -7 -20 -31 9 -35 19 -3 22 1 22
32 0 31 -3 36 -22 35 -17 -1 -19 -2 -5 -6z m17 -43 c0 -5 -7 -10 -15 -10 -8 0
-15 5 -15 10 0 6 7 10 15 10 8 0 15 -4 15 -10z"/>
<path d="M2770 9545 c-16 -19 -3 -55 21 -55 27 0 24 -20 -3 -21 -20 -1 -21 -2
-4 -6 25 -7 46 22 46 62 0 25 -4 31 -24 33 -13 1 -29 -5 -36 -13z m45 -26 c1
-20 -3 -25 -17 -21 -23 6 -31 19 -24 38 10 25 41 12 41 -17z"/>
<path d="M2854 9546 c-11 -28 1 -51 26 -53 22 -1 22 -1 3 4 -32 6 -29 21 5 26
l27 4 -27 2 c-16 0 -28 6 -28 12 0 6 9 9 20 6 11 -3 18 -1 14 4 -8 14 -34 11
-40 -5z"/>
<path d="M2924 9548 c-4 -6 0 -16 9 -23 22 -16 21 -22 0 -28 -16 -4 -16 -5 -1
-6 24 -2 34 20 15 34 -22 16 -21 22 1 28 15 4 15 5 0 6 -9 0 -20 -4 -24 -11z"/>
<path d="M3101 9546 c-20 -24 -4 -56 27 -55 21 1 22 2 7 6 -34 8 -41 23 -11
23 21 0 27 4 24 17 -4 23 -31 28 -47 9z m39 -6 c0 -5 -9 -10 -21 -10 -11 0
-17 5 -14 10 3 6 13 10 21 10 8 0 14 -4 14 -10z"/>
<path d="M3161 9559 c-2 -15 22 -68 29 -64 9 6 31 65 24 65 -2 0 -9 -12 -15
-27 l-11 -28 -13 30 c-7 17 -14 27 -14 24z"/>
<path d="M1284 9519 c-3 -6 0 -17 7 -25 18 -17 44 -2 36 20 -7 18 -33 21 -43
5z m31 -9 c3 -5 1 -10 -4 -10 -6 0 -11 5 -11 10 0 6 2 10 4 10 3 0 8 -4 11
-10z"/>
<path d="M1798 9523 c6 -2 18 -2 25 0 6 3 1 5 -13 5 -14 0 -19 -2 -12 -5z"/>
<path d="M2278 9523 c6 -2 18 -2 25 0 6 3 1 5 -13 5 -14 0 -19 -2 -12 -5z"/>
<path d="M1233 9503 c9 -2 23 -2 30 0 6 3 -1 5 -18 5 -16 0 -22 -2 -12 -5z"/>
<path d="M18062 9488 c3 -22 8 -23 78 -23 70 0 75 1 78 23 2 12 -1 22 -7 22
-6 0 -11 -7 -11 -15 0 -12 -13 -15 -60 -15 -47 0 -60 3 -60 15 0 8 -5 15 -11
15 -6 0 -9 -10 -7 -22z"/>
<path d="M0 4650 l0 -4650 9360 0 9360 0 0 4650 0 4650 -55 0 -55 0 0 -80 c0
-88 -12 -126 -44 -134 -28 -7 -12144 -7 -12172 0 -32 8 -44 46 -44 134 l0 80
-2979 0 -2980 0 -3 -22 c-2 -17 -11 -24 -30 -26 -16 -2 -28 1 -28 6 0 5 10 8
23 8 35 -1 28 28 -9 32 -24 2 -33 -2 -42 -23 -8 -17 -19 -25 -37 -25 -14 0
-25 4 -25 8 0 5 10 8 21 8 35 -1 33 21 -2 28 -17 3 -83 6 -145 6 l-114 0 0
-4650z m3545 3472 c-3 -3 -11 0 -18 7 -9 10 -8 11 6 5 10 -3 15 -9 12 -12z
m1706 -109 c8 -9 -5 -2 -28 17 -24 18 -43 35 -43 37 0 7 56 -35 71 -54z
m-1444 41 c-3 -3 -12 -4 -19 -1 -8 3 -5 6 6 6 11 1 17 -2 13 -5z m814 -31 c13
-16 12 -17 -3 -4 -10 7 -18 15 -18 17 0 8 8 3 21 -13z m-870 -40 c13 -16 12
-17 -3 -4 -10 7 -18 15 -18 17 0 8 8 3 21 -13z m1619 -3 c6 -11 8 -20 6 -20
-3 0 -10 9 -16 20 -6 11 -8 20 -6 20 3 0 10 -9 16 -20z m-609 -67 c13 -16 12
-17 -3 -4 -10 7 -18 15 -18 17 0 8 8 3 21 -13z m-2284 -39 c-3 -3 -12 -4 -19
-1 -8 3 -5 6 6 6 11 1 17 -2 13 -5z m2261 -11 c-1 -5 6 -23 15 -40 10 -18 14
-33 10 -33 -10 1 -42 68 -35 75 8 7 12 6 10 -2z m103 -10 c13 -16 12 -17 -3
-4 -10 7 -18 15 -18 17 0 8 8 3 21 -13z m-971 -28 c0 -5 -5 -3 -10 5 -5 8 -10
20 -10 25 0 6 5 3 10 -5 5 -8 10 -19 10 -25z m1598 -16 c13 -24 17 -36 10 -25
-7 10 -24 32 -38 49 -15 18 -19 28 -10 25 8 -2 25 -24 38 -49z m-2724 12 c4
-5 -3 -7 -14 -4 -23 6 -26 13 -6 13 8 0 17 -4 20 -9z m1301 -31 c3 -6 -1 -7
-9 -4 -18 7 -21 14 -7 14 6 0 13 -4 16 -10z m1466 -7 c13 -16 12 -17 -3 -4
-10 7 -18 15 -18 17 0 8 8 3 21 -13z m-491 -69 c0 -3 -13 4 -30 16 -16 12 -30
24 -30 26 0 3 14 -4 30 -16 17 -12 30 -24 30 -26z m560 11 c13 -14 21 -25 18
-25 -2 0 -15 11 -28 25 -13 14 -21 25 -18 25 2 0 15 -11 28 -25z m-2669 -2
c13 -16 12 -17 -3 -4 -10 7 -18 15 -18 17 0 8 8 3 21 -13z m2609 -3 c6 -11 8
-20 6 -20 -3 0 -10 9 -16 20 -6 11 -8 20 -6 20 3 0 10 -9 16 -20z m-733 -42
c-3 -8 -6 -5 -6 6 -1 11 2 17 5 13 3 -3 4 -12 1 -19z m-1310 -4 c-3 -3 -12 -4
-19 -1 -8 3 -5 6 6 6 11 1 17 -2 13 -5z m1618 -14 c3 -6 -1 -7 -9 -4 -18 7
-21 14 -7 14 6 0 13 -4 16 -10z m580 -20 c16 -17 16 -20 3 -15 -9 4 -19 13
-22 21 -7 19 -2 18 19 -6z m-2676 -29 c-2 -6 -10 2 -17 17 -11 25 -11 25 4 10
9 -9 15 -21 13 -27z m2598 -22 c9 -22 9 -29 0 -26 -12 4 -29 57 -18 57 3 0 12
-14 18 -31z m51 -90 c15 -27 16 -36 6 -36 -7 0 -11 3 -9 7 2 4 -5 24 -16 46
-26 48 -9 33 19 -17z m173 14 c13 -16 12 -17 -3 -4 -10 7 -18 15 -18 17 0 8 8
3 21 -13z m-1044 -35 c-3 -8 -6 -5 -6 6 -1 11 2 17 5 13 3 -3 4 -12 1 -19z
m-340 6 c-3 -3 -12 -4 -19 -1 -8 3 -5 6 6 6 11 1 17 -2 13 -5z m1829 -114 c29
-30 51 -56 49 -58 -2 -2 -24 19 -50 47 -26 28 -51 48 -56 45 -5 -3 -9 0 -9 7
0 7 -8 22 -17 33 l-18 21 24 -20 c14 -11 48 -45 77 -75z m-571 50 c9 -16 13
-30 11 -30 -3 0 -12 14 -21 30 -9 17 -13 30 -11 30 3 0 12 -13 21 -30z m-55
-4 c0 -3 -4 -8 -10 -11 -5 -3 -10 -1 -10 4 0 6 5 11 10 11 6 0 10 -2 10 -4z
m-3833 -72 c-3 -3 -12 -4 -19 -1 -8 3 -5 6 6 6 11 1 17 -2 13 -5z m228 -34 c3
-5 -4 -6 -15 -3 -11 3 -22 9 -25 13 -3 5 4 6 15 3 11 -3 22 -9 25 -13z m3302
-6 c-3 -3 -12 -4 -19 -1 -8 3 -5 6 6 6 11 1 17 -2 13 -5z m-3170 -10 c-3 -3
-12 -4 -19 -1 -8 3 -5 6 6 6 11 1 17 -2 13 -5z m1498 -12 c-3 -3 -11 0 -18 7
-9 10 -8 11 6 5 10 -3 15 -9 12 -12z m2115 -12 c6 -11 8 -20 6 -20 -3 0 -10 9
-16 20 -6 11 -8 20 -6 20 3 0 10 -9 16 -20z m-163 -22 c-3 -8 -6 -5 -6 6 -1
11 2 17 5 13 3 -3 4 -12 1 -19z m-3436 -20 c11 -21 11 -22 -4 -9 -10 7 -17 17
-17 22 0 15 9 10 21 -13z m3964 2 c10 -11 16 -20 13 -20 -3 0 -13 9 -23 20
-10 11 -16 20 -13 20 3 0 13 -9 23 -20z m249 3 c-5 -5 -12 -12 -15 -16 -3 -5
-9 -2 -12 7 -5 12 0 16 15 16 12 0 17 -3 12 -7z m-574 -35 c9 -20 9 -21 -2 -7
-7 9 -20 18 -28 22 -12 4 -12 6 2 6 10 1 22 -9 28 -21z m620 -3 c11 -13 10
-14 -4 -9 -9 3 -16 10 -16 15 0 13 6 11 20 -6z m-209 -42 c13 -16 12 -17 -3
-4 -10 7 -18 15 -18 17 0 8 8 3 21 -13z m338 -36 c8 -10 7 -14 -2 -14 -8 0
-14 6 -14 14 0 7 1 13 2 13 2 0 8 -6 14 -13z m-212 -13 c-3 -3 -12 -4 -19 -1
-8 3 -5 6 6 6 11 1 17 -2 13 -5z m50 -10 c-3 -3 -12 -4 -19 -1 -8 3 -5 6 6 6
11 1 17 -2 13 -5z m-14 -61 c1 -12 9 -29 17 -40 13 -16 13 -17 -1 -6 -9 7 -19
10 -22 6 -4 -3 -7 11 -7 32 0 40 7 44 13 8z m242 7 c10 -11 16 -20 13 -20 -3
0 -13 9 -23 20 -10 11 -16 20 -13 20 3 0 13 -9 23 -20z m-2541 1 c4 -5 -3 -7
-14 -4 -23 6 -26 13 -6 13 8 0 17 -4 20 -9z m1846 -46 c0 -5 -9 1 -20 15 -11
14 -20 30 -20 35 0 6 9 -1 20 -15 11 -14 20 -29 20 -35z m-1495 -3 c-3 -3 -11
0 -18 7 -9 10 -8 11 6 5 10 -3 15 -9 12 -12z m2045 -12 c-6 -11 -13 -20 -16
-20 -2 0 0 9 6 20 6 11 13 20 16 20 2 0 0 -9 -6 -20z m-1733 -26 c-3 -3 -12
-4 -19 -1 -8 3 -5 6 6 6 11 1 17 -2 13 -5z m1941 -29 c-3 -3 -9 2 -12 12 -6
14 -5 15 5 6 7 -7 10 -15 7 -18z m-248 -15 c-6 -11 -13 -20 -16 -20 -2 0 0 9
6 20 6 11 13 20 16 20 2 0 0 -9 -6 -20z m-1079 -7 c13 -16 12 -17 -3 -4 -10 7
-18 15 -18 17 0 8 8 3 21 -13z m996 -20 c-3 -10 -5 -4 -5 12 0 17 2 24 5 18 2
-7 2 -21 0 -30z m-357 -13 c6 -11 8 -20 6 -20 -3 0 -10 9 -16 20 -6 11 -8 20
-6 20 3 0 10 -9 16 -20z m-579 -8 c-7 -2 -18 1 -23 6 -8 8 -4 9 13 5 13 -4 18
-8 10 -11z m39 -12 c-8 -5 -19 -10 -25 -10 -5 0 -3 5 5 10 8 5 20 10 25 10 6
0 3 -5 -5 -10z m95 0 c3 -5 1 -10 -4 -10 -6 0 -11 5 -11 10 0 6 2 10 4 10 3 0
8 -4 11 -10z m841 -17 c-8 -16 -21 -37 -30 -48 -15 -20 -15 -20 -9 3 3 12 9
22 14 22 5 0 9 9 9 19 0 16 8 24 28 30 1 1 -4 -11 -12 -26z m395 0 c13 -16 12
-17 -3 -4 -10 7 -18 15 -18 17 0 8 8 3 21 -13z m-1784 -15 c-3 -8 -6 -5 -6 6
-1 11 2 17 5 13 3 -3 4 -12 1 -19z m403 12 c0 -5 -5 -10 -11 -10 -5 0 -7 5 -4
10 3 6 8 10 11 10 2 0 4 -4 4 -10z m620 -10 c6 -11 8 -20 6 -20 -3 0 -10 9
-16 20 -6 11 -8 20 -6 20 3 0 10 -9 16 -20z m-485 -40 c3 -6 -1 -7 -9 -4 -18
7 -21 14 -7 14 6 0 13 -4 16 -10z m520 -22 c14 -29 14 -31 0 -14 -8 11 -15 23
-15 27 0 4 -8 10 -17 12 -17 4 -17 5 -1 6 10 1 24 -12 33 -31z m200 -6 c-3 -3
-11 0 -18 7 -9 10 -8 11 6 5 10 -3 15 -9 12 -12z m75 -17 c-7 -8 -9 -23 -6
-32 4 -10 4 -14 0 -10 -4 4 -13 2 -21 -5 -11 -9 -12 -7 -7 8 4 10 11 25 17 32
5 6 6 12 1 12 -5 0 -2 4 6 10 20 12 26 4 10 -15z m37 -7 c-3 -8 -6 -5 -6 6 -1
11 2 17 5 13 3 -3 4 -12 1 -19z m43 6 c0 -2 -7 -4 -15 -4 -8 0 -15 4 -15 10 0
5 7 7 15 4 8 -4 15 -8 15 -10z m411 -27 c-10 -9 -11 -8 -5 6 3 10 9 15 12 12
3 -3 0 -11 -7 -18z m-76 -17 c3 -6 -1 -7 -9 -4 -18 7 -21 14 -7 14 6 0 13 -4
16 -10z m42 -6 c-3 -3 -12 -4 -19 -1 -8 3 -5 6 6 6 11 1 17 -2 13 -5z m-1269
-39 c-3 -3 -9 2 -12 12 -6 14 -5 15 5 6 7 -7 10 -15 7 -18z m-4411 9 c-3 -3
-12 -4 -19 -1 -8 3 -5 6 6 6 11 1 17 -2 13 -5z m161 -11 c-10 -2 -26 -2 -35 0
-10 3 -2 5 17 5 19 0 27 -2 18 -5z m188 -5 c4 4 5 2 1 -4 -3 -5 -22 -8 -41 -6
-20 2 -34 8 -31 12 3 5 18 5 34 0 16 -4 33 -5 37 -2z m57 -47 c-4 -6 -43 30
-43 40 0 5 10 -2 23 -14 13 -12 22 -24 20 -26z m1882 31 c-3 -3 -11 0 -18 7
-9 10 -8 11 6 5 10 -3 15 -9 12 -12z m-1838 2 c-3 -3 -12 -4 -19 -1 -8 3 -5 6
6 6 11 1 17 -2 13 -5z m4590 -18 c0 -8 -6 -12 -12 -10 -6 3 -12 11 -12 18 0 8
6 12 12 10 6 -3 12 -11 12 -18z m-4430 8 c-3 -3 -12 -4 -19 -1 -8 3 -5 6 6 6
11 1 17 -2 13 -5z m3790 -46 c-2 -13 -4 -5 -4 17 -1 22 1 32 4 23 2 -10 2 -28
0 -40z m-3644 35 c-7 -2 -19 -2 -25 0 -7 3 -2 5 12 5 14 0 19 -2 13 -5z m154
-9 c-3 -3 -12 -4 -19 -1 -8 3 -5 6 6 6 11 1 17 -2 13 -5z m150 -10 c-3 -3 -12
-4 -19 -1 -8 3 -5 6 6 6 11 1 17 -2 13 -5z m160 -10 c-3 -3 -12 -4 -19 -1 -8
3 -5 6 6 6 11 1 17 -2 13 -5z m156 -11 c-7 -2 -19 -2 -25 0 -7 3 -2 5 12 5 14
0 19 -2 13 -5z m4427 -26 c0 -5 -4 -5 -10 -2 -5 3 -10 14 -10 23 0 15 2 15 10
2 5 -8 10 -19 10 -23z m-4133 7 c-3 -3 -12 -4 -19 -1 -8 3 -5 6 6 6 11 1 17
-2 13 -5z m3433 -14 c-8 -14 -8 -26 0 -42 10 -21 10 -21 -3 -6 -8 10 -16 16
-18 13 -3 -2 -5 4 -5 15 0 10 3 17 7 14 4 -2 9 3 13 11 3 8 8 15 11 15 3 0 1
-9 -5 -20z m-3273 4 c-3 -3 -12 -4 -19 -1 -8 3 -5 6 6 6 11 1 17 -2 13 -5z
m3790 -16 c-3 -8 -6 -5 -6 6 -1 11 2 17 5 13 3 -3 4 -12 1 -19z m-3654 5 c-7
-2 -19 -2 -25 0 -7 3 -2 5 12 5 14 0 19 -2 13 -5z m164 -9 c-3 -3 -12 -4 -19
-1 -8 3 -5 6 6 6 11 1 17 -2 13 -5z m2260 -46 c-2 -13 -4 -5 -4 17 -1 22 1 32
4 23 2 -10 2 -28 0 -40z m1432 15 c17 -37 9 -36 -16 3 -12 18 -16 30 -8 28 7
-3 18 -17 24 -31z m39 12 c7 -14 7 -27 1 -36 -8 -11 -9 -9 -7 6 2 13 -2 19
-12 17 -8 -2 -12 0 -8 4 4 4 3 12 -2 19 -7 8 -5 12 4 12 8 0 19 -10 24 -22z
m-3571 9 c-3 -3 -12 -4 -19 -1 -8 3 -5 6 6 6 11 1 17 -2 13 -5z m150 -10 c-3
-3 -12 -4 -19 -1 -8 3 -5 6 6 6 11 1 17 -2 13 -5z m146 -11 c-7 -2 -19 -2 -25
0 -7 3 -2 5 12 5 14 0 19 -2 13 -5z m2477 -23 c-6 -11 -13 -20 -16 -20 -2 0 0
9 6 20 6 11 13 20 16 20 2 0 0 -9 -6 -20z m237 -42 c-2 -13 -4 -5 -4 17 -1 22
1 32 4 23 2 -10 2 -28 0 -40z m273 2 c0 -5 -5 -12 -12 -16 -7 -5 -8 -3 -3 6 5
8 -3 21 -21 37 l-29 25 33 -22 c17 -12 32 -25 32 -30z m230 40 c0 -5 -5 -10
-11 -10 -5 0 -7 5 -4 10 3 6 8 10 11 10 2 0 4 -4 4 -10z m-2753 -6 c-3 -3 -12
-4 -19 -1 -8 3 -5 6 6 6 11 1 17 -2 13 -5z m156 -11 c-7 -2 -19 -2 -25 0 -7 3
-2 5 12 5 14 0 19 -2 13 -5z m134 -9 c-3 -3 -12 -4 -19 -1 -8 3 -5 6 6 6 11 1
17 -2 13 -5z m1803 -14 c6 -11 8 -20 6 -20 -3 0 -10 9 -16 20 -6 11 -8 20 -6
20 3 0 10 -9 16 -20z m730 -15 c0 -5 -5 -3 -10 5 -5 8 -10 20 -10 25 0 6 5 3
10 -5 5 -8 10 -19 10 -25z m-2363 19 c-3 -3 -12 -4 -19 -1 -8 3 -5 6 6 6 11 1
17 -2 13 -5z m150 -10 c-3 -3 -12 -4 -19 -1 -8 3 -5 6 6 6 11 1 17 -2 13 -5z
m150 -10 c-3 -3 -12 -4 -19 -1 -8 3 -5 6 6 6 11 1 17 -2 13 -5z m1213 -14 c-6
-11 -13 -20 -16 -20 -2 0 0 9 6 20 6 11 13 20 16 20 2 0 0 -9 -6 -20z m834 4
c3 -8 2 -12 -4 -9 -6 3 -10 10 -10 16 0 14 7 11 14 -7z m-1897 0 c-3 -3 -12
-4 -19 -1 -8 3 -5 6 6 6 11 1 17 -2 13 -5z m157 -15 c-3 -5 -14 -5 -25 1 -26
14 -24 18 6 12 14 -2 22 -8 19 -13z m1481 -19 c9 -16 13 -30 11 -30 -3 0 -12
14 -21 30 -9 17 -13 30 -11 30 3 0 12 -13 21 -30z m-1195 2 c-14 -2 -28 -9
-32 -16 -5 -7 -8 -6 -8 5 0 23 7 27 38 20 l27 -5 -25 -4z m1250 8 c0 -5 -7
-10 -16 -10 -8 0 -12 5 -9 10 3 6 10 10 16 10 5 0 9 -4 9 -10z m-1125 -10 c-3
-5 -12 -10 -18 -10 -7 0 -6 4 3 10 19 12 23 12 15 0z m803 -52 c13 -3 12 -5
-5 -10 -21 -6 -23 -3 -21 35 1 36 2 38 5 10 3 -20 11 -33 21 -35z m560 2 c0
-9 -3 -7 -8 5 -5 11 -8 29 -8 40 0 16 2 15 8 -5 4 -14 8 -32 8 -40z m-1278 40
c0 -5 -2 -10 -4 -10 -3 0 -8 5 -11 10 -3 6 -1 10 4 10 6 0 11 -4 11 -10z m108
-7 c-10 -2 -26 -2 -35 0 -10 3 -2 5 17 5 19 0 27 -2 18 -5z m1252 -1 c0 -5 -7
-17 -15 -28 -14 -18 -14 -17 -4 9 12 27 19 34 19 19z m-1093 -8 c-3 -3 -12 -4
-19 -1 -8 3 -5 6 6 6 11 1 17 -2 13 -5z m113 -4 c0 -5 -5 -10 -11 -10 -5 0 -7
5 -4 10 3 6 8 10 11 10 2 0 4 -4 4 -10z m37 -6 c-3 -3 -12 -4 -19 -1 -8 3 -5
6 6 6 11 1 17 -2 13 -5z m98 -12 c-3 -3 -11 0 -18 7 -9 10 -8 11 6 5 10 -3 15
-9 12 -12z m85 -12 c6 -11 8 -20 6 -20 -3 0 -10 9 -16 20 -6 11 -8 20 -6 20 3
0 10 -9 16 -20z m301 -9 c-12 -8 -51 -4 -51 5 0 2 15 4 33 4 22 0 28 -3 18 -9z
m-4331 -5 c0 -3 -4 -8 -10 -11 -5 -3 -10 -1 -10 4 0 6 5 11 10 11 6 0 10 -2
10 -4z m3770 -16 c-6 -11 -13 -20 -16 -20 -2 0 0 9 6 20 6 11 13 20 16 20 2 0
0 -9 -6 -20z m707 -17 c1 -34 0 -35 -5 -9 -4 16 -16 33 -27 37 -18 7 -17 8 5
8 23 1 26 -3 27 -36z m271 16 l27 -1 -25 -7 c-30 -9 -40 -5 -39 17 0 11 3 12
6 5 2 -7 17 -13 31 -14z m-113 -14 c-2 -35 -15 -44 -15 -11 0 19 -4 27 -13 23
-8 -3 -20 -1 -28 4 -10 6 -3 9 21 9 32 0 36 -3 35 -25z m-1495 1 c0 -2 -7 -7
-16 -10 -8 -3 -12 -2 -9 4 6 10 25 14 25 6z m945 -44 c-6 -7 -35 18 -35 31 0
5 9 2 20 -8 11 -10 18 -20 15 -23z m-2170 18 c3 -5 2 -10 -4 -10 -5 0 -13 5
-16 10 -3 6 -2 10 4 10 5 0 13 -4 16 -10z m1815 -30 c-6 -11 -13 -20 -16 -20
-2 0 0 9 6 20 6 11 13 20 16 20 2 0 0 -9 -6 -20z m1014 12 c-15 -10 -25 -42
-14 -42 6 0 10 -5 10 -11 0 -8 -4 -8 -14 0 -18 15 -8 61 13 61 10 0 12 -3 5
-8z m-597 -29 c0 -8 -6 -9 -19 -2 -10 5 -18 11 -18 12 0 2 8 3 18 3 10 0 19
-6 19 -13z m-447 -33 c-6 -11 -13 -20 -16 -20 -2 0 0 9 6 20 6 11 13 20 16 20
2 0 0 -9 -6 -20z m-122 -35 c-3 -3 -9 2 -12 12 -6 14 -5 15 5 6 7 -7 10 -15 7
-18z m579 -34 c15 -27 30 -48 33 -46 3 2 6 -5 6 -16 0 -10 -3 -15 -7 -11 -12
12 -70 122 -65 122 3 0 17 -22 33 -49z m-522 -48 c-35 -61 -45 -72 -45 -50 0
9 4 17 8 17 5 0 18 18 31 40 12 22 25 40 28 40 3 0 -7 -21 -22 -47z m945 -1
c0 -5 -7 -17 -15 -28 -14 -18 -14 -17 -4 9 12 27 19 34 19 19z m334 -8 c9 -24
2 -26 -12 -4 -7 11 -8 20 -3 20 5 0 12 -7 15 -16z m-262 -19 c-2 -14 -8 -28
-13 -31 -5 -3 -7 2 -4 10 3 9 7 23 10 31 7 24 13 17 7 -10z m115 -7 c-3 -8 -6
-5 -6 6 -1 11 2 17 5 13 3 -3 4 -12 1 -19z m181 -13 c-3 -3 -9 2 -12 12 -6 14
-5 15 5 6 7 -7 10 -15 7 -18z m-777 -8 c-10 -9 -11 -8 -5 6 3 10 9 15 12 12 3
-3 0 -11 -7 -18z m-447 -60 c7 -5 4 -6 -7 -3 -10 3 -22 6 -27 6 -4 0 -6 10 -3
21 6 20 6 20 16 3 6 -11 15 -23 21 -27z m-1224 29 c0 -2 -7 -7 -16 -10 -8 -3
-12 -2 -9 4 6 10 25 14 25 6z m2020 -12 c0 -8 -5 -12 -10 -9 -6 4 -8 11 -5 16
9 14 15 11 15 -7z m454 -44 c-5 -5 -9 4 -10 23 -1 30 -1 30 9 9 6 -14 7 -26 1
-32z m-6232 -60 c9 0 20 -5 24 -12 5 -8 2 -9 -10 -5 -10 4 -24 7 -31 7 -7 0
-21 15 -29 33 l-16 32 23 -27 c13 -16 30 -28 39 -28z m5788 20 c0 -16 -4 -30
-8 -30 -5 0 -7 14 -4 30 2 17 6 30 8 30 2 0 4 -13 4 -30z m-220 -32 c0 -17
-10 -6 -25 25 l-16 32 20 -25 c11 -14 21 -28 21 -32z m647 30 c-3 -8 -6 -5 -6
6 -1 11 2 17 5 13 3 -3 4 -12 1 -19z m-1447 -33 c-7 -9 -15 -13 -18 -10 -3 2
1 11 8 20 7 9 15 13 18 10 3 -2 -1 -11 -8 -20z m1180 -8 c0 -8 -3 -8 -9 2 -5
7 -14 10 -20 7 -6 -4 -11 0 -11 9 0 13 4 14 20 5 11 -6 20 -16 20 -23z m-2420
19 c0 -2 -9 -6 -20 -9 -11 -3 -20 -1 -20 4 0 5 9 9 20 9 11 0 20 -2 20 -4z
m475 -6 c3 -6 -1 -7 -9 -4 -18 7 -21 14 -7 14 6 0 13 -4 16 -10z m372 -22 c-3
-7 -5 -2 -5 12 0 14 2 19 5 13 2 -7 2 -19 0 -25z m1690 10 c-3 -8 -6 -5 -6 6
-1 11 2 17 5 13 3 -3 4 -12 1 -19z m205 -3 c3 -13 2 -22 -2 -20 -11 7 -20 45
-10 45 4 0 10 -11 12 -25z m-85 -37 c-3 -8 -6 -5 -6 6 -1 11 2 17 5 13 3 -3 4
-12 1 -19z m-1457 -18 c-6 -11 -13 -20 -16 -20 -2 0 0 9 6 20 6 11 13 20 16
20 2 0 0 -9 -6 -20z m1370 -35 c7 -8 5 -12 -5 -12 -8 0 -15 5 -15 11 0 6 -3
22 -5 36 l-6 25 11 -24 c6 -14 15 -30 20 -36z m-297 30 c-3 -9 -8 -14 -10 -11
-3 3 -2 9 2 15 9 16 15 13 8 -4z m-158 -9 c-12 -9 -16 -19 -12 -32 7 -19 7
-18 -8 0 -13 17 -13 21 3 32 9 7 21 14 26 14 6 0 1 -6 -9 -14z m622 -83 c-3
-10 -5 -4 -5 12 0 17 2 24 5 18 2 -7 2 -21 0 -30z m-1772 7 c-3 -5 -12 -10
-18 -10 -7 0 -6 4 3 10 19 12 23 12 15 0z m995 -30 c0 -5 -4 -10 -10 -10 -5 0
-10 5 -10 10 0 6 5 10 10 10 6 0 10 -4 10 -10z m-1065 -10 c-3 -5 -12 -10 -18
-10 -7 0 -6 4 3 10 19 12 23 12 15 0z m1869 -2 c-3 -4 -9 -8 -15 -8 -5 0 -9 4
-9 8 0 5 7 9 15 9 8 0 12 -4 9 -9z m-19 -14 c26 -17 31 -39 15 -64 -8 -11 -9
-8 -4 11 3 17 1 30 -7 35 -9 5 -10 2 -6 -9 11 -28 -1 -19 -18 13 -18 34 -14
37 20 14z m-565 -37 c0 -4 5 -5 12 -1 7 4 8 3 4 -5 -4 -6 -2 -19 6 -28 9 -12
10 -15 0 -9 -7 4 -21 26 -33 49 -12 26 -14 34 -4 23 8 -11 15 -24 15 -29z
m-270 29 c0 -2 -7 -7 -16 -10 -8 -3 -12 -2 -9 4 6 10 25 14 25 6z m-1080 -10
c0 -3 -4 -8 -10 -11 -5 -3 -10 -1 -10 4 0 6 5 11 10 11 6 0 10 -2 10 -4z m260
-26 c-6 -11 -13 -20 -16 -20 -2 0 0 9 6 20 6 11 13 20 16 20 2 0 0 -9 -6 -20z
m1492 -22 c-6 -6 -7 0 -4 19 5 21 7 23 10 9 2 -10 0 -22 -6 -28z m-3122 28 c0
-2 -7 -7 -16 -10 -8 -3 -12 -2 -9 4 6 10 25 14 25 6z m607 -58 c-3 -7 -5 -2
-5 12 0 14 2 19 5 13 2 -7 2 -19 0 -25z m1003 12 c0 -4 -8 -14 -17 -21 -16
-12 -17 -12 -6 2 10 12 10 18 0 28 -9 10 -8 11 6 6 9 -4 17 -11 17 -15z m357
-37 c-3 -10 -5 -2 -5 17 0 19 2 27 5 18 2 -10 2 -26 0 -35z m746 22 c-3 -9 -8
-14 -10 -11 -3 3 -2 9 2 15 9 16 15 13 8 -4z m-2838 -5 c-3 -5 -12 -10 -18
-10 -7 0 -6 4 3 10 19 12 23 12 15 0z m3245 -25 c0 -5 -5 -3 -10 5 -5 8 -10
20 -10 25 0 6 5 3 10 -5 5 -8 10 -19 10 -25z m157 -2 c-3 -10 -5 -4 -5 12 0
17 2 24 5 18 2 -7 2 -21 0 -30z m69 -42 c12 -38 25 -61 34 -62 10 0 8 -3 -5
-9 -31 -13 -37 -12 -31 8 4 10 -3 44 -13 75 -11 32 -17 56 -12 53 4 -3 16 -32
27 -65z m-1775 26 c-10 -9 -11 -8 -5 6 3 10 9 15 12 12 3 -3 0 -11 -7 -18z
m1120 -4 c-12 -20 -14 -14 -5 12 4 9 9 14 11 11 3 -2 0 -13 -6 -23z m400 0
c-12 -20 -14 -14 -5 12 4 9 9 14 11 11 3 -2 0 -13 -6 -23z m276 -15 c-3 -8 -6
-5 -6 6 -1 11 2 17 5 13 3 -3 4 -12 1 -19z m-199 -55 c6 -18 8 -35 4 -37 -5
-3 -12 15 -18 40 -12 49 -3 47 14 -3z m-998 33 c0 -2 -8 -10 -17 -17 -16 -13
-17 -12 -4 4 13 16 21 21 21 13z m491 -39 c-10 -9 -11 -8 -5 6 3 10 9 15 12
12 3 -3 0 -11 -7 -18z m304 -17 c3 -5 1 -10 -4 -10 -6 0 -11 5 -11 10 0 6 2
10 4 10 3 0 8 -4 11 -10z m115 -16 c0 -2 -9 -4 -21 -4 -11 0 -18 4 -14 10 5 8
35 3 35 -6z m157 10 c-3 -3 -12 -4 -19 -1 -8 3 -5 6 6 6 11 1 17 -2 13 -5z
m-364 -40 c2 -13 -1 -27 -7 -31 -6 -3 -8 -3 -4 2 4 4 1 20 -8 36 -12 24 -12
28 0 23 8 -3 16 -16 19 -30z m-842 9 c2 1 -2 -3 -10 -10 -7 -7 -11 -19 -8 -28
4 -9 1 -15 -8 -15 -11 0 -12 6 -5 24 6 16 5 28 -3 36 -10 10 -8 10 9 2 12 -6
23 -10 25 -9z m909 13 c0 -9 -30 -14 -35 -6 -4 6 3 10 14 10 12 0 21 -2 21 -4z
m-295 -16 c4 -6 -6 -10 -22 -9 -25 0 -26 1 -8 9 11 5 21 9 22 9 1 1 5 -3 8 -9z
m-1165 -20 c-6 -11 -13 -20 -16 -20 -2 0 0 9 6 20 6 11 13 20 16 20 2 0 0 -9
-6 -20z m827 -6 c-3 -3 -12 -4 -19 -1 -8 3 -5 6 6 6 11 1 17 -2 13 -5z m-327
-9 c0 -2 -10 -10 -22 -16 -21 -11 -22 -11 -9 4 13 16 31 23 31 12z m-577 -35
c3 -12 0 -20 -8 -20 -8 0 -11 8 -8 20 3 11 7 20 8 20 1 0 5 -9 8 -20z m-623
-4 c0 -3 -4 -8 -10 -11 -5 -3 -10 -1 -10 4 0 6 5 11 10 11 6 0 10 -2 10 -4z
m660 -16 c-6 -11 -13 -20 -16 -20 -2 0 0 9 6 20 6 11 13 20 16 20 2 0 0 -9 -6
-20z m1760 -11 c0 -11 -4 -17 -10 -14 -5 3 -10 1 -10 -6 0 -7 -2 -10 -5 -8 -7
8 6 49 16 49 5 0 9 -9 9 -21z m-2477 -14 c-3 -9 -8 -14 -11 -11 -2 3 -17 -1
-33 -10 -16 -8 -29 -12 -29 -9 0 3 67 42 77 45 1 0 0 -7 -4 -15z m364 9 c-3
-3 -12 -4 -19 -1 -8 3 -5 6 6 6 11 1 17 -2 13 -5z m-304 -21 c-7 -2 -19 -2
-25 0 -7 3 -2 5 12 5 14 0 19 -2 13 -5z m616 -37 c-29 -49 -36 -46 -8 4 12 22
24 38 26 36 2 -2 -6 -20 -18 -40z m1884 5 c5 -22 -1 -65 -13 -111 -5 -15 -19
-33 -20 -24 0 6 3 14 7 18 16 16 20 113 5 128 -16 16 -15 29 2 22 8 -3 16 -18
19 -33z m137 15 c0 -3 -4 -8 -10 -11 -5 -3 -10 -1 -10 4 0 6 5 11 10 11 6 0
10 -2 10 -4z m-1389 -29 c-10 -9 -11 -8 -5 6 3 10 9 15 12 12 3 -3 0 -11 -7
-18z m532 -7 c-3 -12 -8 -19 -11 -16 -5 6 5 36 12 36 2 0 2 -9 -1 -20z m420
-20 c8 -29 0 -24 -19 13 -14 27 -15 30 -2 19 9 -7 18 -22 21 -32z m387 6 c0
-2 -7 -7 -16 -10 -8 -3 -12 -2 -9 4 6 10 25 14 25 6z m-4170 -37 c0 -5 -5 -9
-12 -9 -6 0 -8 3 -5 7 4 3 1 13 -6 22 -11 14 -10 14 6 2 9 -7 17 -17 17 -22z
m2769 -2 c-2 -18 0 -37 4 -43 3 -6 1 -19 -6 -28 -10 -14 -12 -12 -10 16 1 18
2 45 2 61 1 15 4 27 7 27 3 0 4 -15 3 -33z m1461 18 c0 -8 -4 -15 -10 -15 -5
0 -7 7 -4 15 4 8 8 15 10 15 2 0 4 -7 4 -15z m-112 -30 c-3 -3 -9 2 -12 12 -6
14 -5 15 5 6 7 -7 10 -15 7 -18z m-4191 9 c-3 -3 -12 -4 -19 -1 -8 3 -5 6 6 6
11 1 17 -2 13 -5z m3883 -14 c6 -11 8 -20 6 -20 -3 0 -10 9 -16 20 -6 11 -8
20 -6 20 3 0 10 -9 16 -20z m-427 -2 c-4 -7 -6 -22 -4 -33 3 -20 2 -20 -12 0
-13 17 -13 21 2 32 21 16 24 16 14 1z m-3776 -4 c-3 -3 -12 -4 -19 -1 -8 3 -5
6 6 6 11 1 17 -2 13 -5z m1770 -36 c-3 -8 -6 -5 -6 6 -1 11 2 17 5 13 3 -3 4
-12 1 -19z m2463 -8 c6 -11 8 -20 6 -20 -3 0 -10 9 -16 20 -6 11 -8 20 -6 20
3 0 10 -9 16 -20z m-1728 -12 c-7 -7 -12 -8 -12 -2 0 14 12 26 19 19 2 -3 -1
-11 -7 -17z m1193 -6 c-6 -4 -12 -18 -13 -32 -2 -14 -8 -29 -13 -34 -5 -6 -5
4 0 22 5 18 7 32 4 32 -3 0 0 7 7 15 7 9 15 13 19 10 3 -3 1 -9 -4 -13z
m-4922 -19 c-7 -2 -21 -2 -30 0 -10 3 -4 5 12 5 17 0 24 -2 18 -5z m3697 -32
c-11 -22 -24 -42 -29 -46 -6 -3 -4 7 4 22 8 15 15 33 15 40 0 9 9 17 28 22 1
1 -7 -17 -18 -38z m661 12 c-12 -20 -14 -14 -5 12 4 9 9 14 11 11 3 -2 0 -13
-6 -23z m1306 -5 c-3 -7 -5 -2 -5 12 0 14 2 19 5 13 2 -7 2 -19 0 -25z m-1767
-8 c0 -5 -5 -10 -11 -10 -5 0 -7 5 -4 10 3 6 8 10 11 10 2 0 4 -4 4 -10z
m1437 -12 c-3 -8 -6 -5 -6 6 -1 11 2 17 5 13 3 -3 4 -12 1 -19z m-6082 2 c16
-7 12 -9 -18 -9 -23 -1 -36 3 -32 9 7 12 23 12 50 0z m142 4 c-3 -3 -12 -4
-19 -1 -8 3 -5 6 6 6 11 1 17 -2 13 -5z m6132 -44 c36 -58 37 -62 16 -53 -9 3
-13 8 -10 11 3 3 -6 25 -20 49 -36 60 -24 54 14 -7z m-1015 -16 c3 -8 2 -12
-4 -9 -6 3 -10 10 -10 16 0 14 7 11 14 -7z m1329 -4 c-3 -11 -7 -20 -8 -20 -1
0 -5 9 -8 20 -3 12 0 20 8 20 8 0 11 -8 8 -20z m-496 -12 c-3 -8 -6 -5 -6 6
-1 11 2 17 5 13 3 -3 4 -12 1 -19z m293 2 c0 -5 -5 -10 -11 -10 -5 0 -7 5 -4
10 3 6 8 10 11 10 2 0 4 -4 4 -10z m57 4 c-3 -3 -12 -4 -19 -1 -8 3 -5 6 6 6
11 1 17 -2 13 -5z m-2057 -24 c-6 -11 -13 -20 -16 -20 -2 0 0 9 6 20 6 11 13
20 16 20 2 0 0 -9 -6 -20z m1805 -10 c3 5 14 10 23 9 14 0 14 -2 2 -6 -8 -3
-17 -10 -20 -14 -7 -11 -50 0 -50 13 0 5 8 4 19 -2 13 -7 22 -7 26 0z m252
-52 c-2 -13 -4 -5 -4 17 -1 22 1 32 4 23 2 -10 2 -28 0 -40z m-403 17 c-9 -14
-18 -25 -20 -25 -2 0 2 11 8 25 6 14 15 25 20 25 5 0 1 -11 -8 -25z m286 5 c6
-11 8 -20 6 -20 -3 0 -10 9 -16 20 -6 11 -8 20 -6 20 3 0 10 -9 16 -20z
m-3140 -4 c0 -2 -7 -7 -16 -10 -8 -3 -12 -2 -9 4 6 10 25 14 25 6z m1160 -26
c-6 -11 -13 -20 -16 -20 -2 0 0 9 6 20 6 11 13 20 16 20 2 0 0 -9 -6 -20z
m685 10 c3 -5 2 -10 -4 -10 -5 0 -13 5 -16 10 -3 6 -2 10 4 10 5 0 13 -4 16
-10z m742 -6 c-3 -3 -12 -4 -19 -1 -8 3 -5 6 6 6 11 1 17 -2 13 -5z m-105 -29
c-2 -14 -6 -25 -8 -25 -2 0 -4 11 -4 25 0 14 4 25 9 25 4 0 6 -11 3 -25z m708
-29 c0 -16 -28 15 -34 37 -5 21 -4 21 14 -3 11 -14 20 -29 20 -34z m-2060 -1
c-7 -9 -15 -13 -18 -10 -3 2 1 11 8 20 7 9 15 13 18 10 3 -2 -1 -11 -8 -20z
m995 5 c-3 -5 -14 -10 -23 -9 -14 0 -13 2 3 9 27 11 27 11 20 0z m-170 -20 c3
-5 1 -10 -4 -10 -6 0 -11 5 -11 10 0 6 2 10 4 10 3 0 8 -4 11 -10z m1329 -16
c3 -8 2 -12 -4 -9 -6 3 -10 10 -10 16 0 14 7 11 14 -7z m137 3 c-6 -8 -9 -17
-6 -20 3 -4 2 -5 -2 -2 -4 3 -25 -12 -47 -32 -22 -21 -33 -29 -23 -17 9 11 14
24 10 29 -5 4 -3 5 3 2 6 -3 24 7 39 23 29 30 47 41 26 17z m-1631 -11 c0 -3
-4 -8 -10 -11 -5 -3 -10 -1 -10 4 0 6 5 11 10 11 6 0 10 -2 10 -4z m1012 -38
c-7 -7 -12 -8 -12 -2 0 14 12 26 19 19 2 -3 -1 -11 -7 -17z m604 -25 c-11 -11
-17 4 -9 23 7 18 8 18 11 1 2 -10 1 -21 -2 -24z m-143 -23 c8 -29 0 -24 -19
13 -14 27 -15 30 -2 19 9 -7 18 -22 21 -32z m-5216 4 c-3 -3 -12 -4 -19 -1 -8
3 -5 6 6 6 11 1 17 -2 13 -5z m3003 -15 c-7 -11 -14 -18 -17 -15 -3 3 0 12 7
21 18 21 23 19 10 -6z m157 15 c-3 -3 -12 -4 -19 -1 -8 3 -5 6 6 6 11 1 17 -2
13 -5z m2097 -25 c-10 -12 -60 -62 -111 -112 -51 -49 -90 -95 -86 -100 3 -6 2
-7 -4 -4 -16 10 -56 -39 -51 -61 3 -11 0 -19 -8 -19 -8 0 -14 5 -14 11 0 6
-55 -43 -122 -109 l-123 -120 113 115 c62 64 110 119 107 123 -3 4 -2 5 2 2
10 -8 53 37 46 48 -3 6 -2 7 4 4 5 -3 65 50 133 118 68 69 126 125 128 125 3
0 -3 -9 -14 -21z m-357 -21 c-3 -7 -5 -2 -5 12 0 14 2 19 5 13 2 -7 2 -19 0
-25z m-2027 8 c0 -2 -13 -6 -29 -8 -17 -2 -28 -1 -25 4 5 8 54 12 54 4z m-157
-23 c-7 -2 -19 -2 -25 0 -7 3 -2 5 12 5 14 0 19 -2 13 -5z m247 -23 c-6 -11
-13 -20 -16 -20 -2 0 0 9 6 20 6 11 13 20 16 20 2 0 0 -9 -6 -20z m2309 -15
c20 -34 20 -36 3 -70 -9 -19 -21 -35 -26 -35 -4 0 -1 11 7 24 15 22 11 75 -7
105 -4 6 -5 11 -3 11 3 0 14 -16 26 -35z m-3099 15 c0 -5 -5 -10 -11 -10 -5 0
-7 5 -4 10 3 6 8 10 11 10 2 0 4 -4 4 -10z m-745 -20 c-3 -5 -12 -10 -18 -10
-7 0 -6 4 3 10 19 12 23 12 15 0z m3155 7 c0 -2 -15 -16 -32 -33 l-33 -29 29
33 c28 30 36 37 36 29z m-949 -30 c-10 -9 -11 -8 -5 6 3 10 9 15 12 12 3 -3 0
-11 -7 -18z m-701 -7 c-6 -11 -13 -20 -16 -20 -2 0 0 9 6 20 6 11 13 20 16 20
2 0 0 -9 -6 -20z m820 16 c0 -2 -8 -10 -17 -17 -16 -13 -17 -12 -4 4 13 16 21
21 21 13z m1560 -56 c6 -11 7 -20 2 -20 -6 0 -12 9 -15 20 -3 11 -3 20 -1 20
2 0 8 -9 14 -20z m60 5 c0 -8 -7 -15 -15 -15 -13 0 -14 3 -3 15 16 18 18 18
18 0z m-3493 -1 c-3 -3 -12 -4 -19 -1 -8 3 -5 6 6 6 11 1 17 -2 13 -5z m3040
-26 c-3 -8 -6 -5 -6 6 -1 11 2 17 5 13 3 -3 4 -12 1 -19z m-2027 -8 c-6 -11
-13 -20 -16 -20 -2 0 0 9 6 20 6 11 13 20 16 20 2 0 0 -9 -6 -20z m2400 10 c0
-5 -5 -10 -11 -10 -5 0 -7 5 -4 10 3 6 8 10 11 10 2 0 4 -4 4 -10z m-820 -4
c0 -2 -8 -10 -17 -17 -16 -13 -17 -12 -4 4 13 16 21 21 21 13z m890 -63 c0 -6
-5 -15 -12 -19 -7 -4 -8 -3 -4 4 4 6 0 26 -9 44 l-16 33 20 -25 c11 -14 21
-30 21 -37z m-4525 37 c3 -6 -1 -7 -9 -4 -18 7 -21 14 -7 14 6 0 13 -4 16 -10z
m4415 -11 c-7 -11 -14 -19 -16 -16 -7 7 7 37 17 37 6 0 5 -9 -1 -21z m-1688
-31 c-8 -8 -9 -4 -5 13 4 13 8 18 11 10 2 -7 -1 -18 -6 -23z m-2392 17 c0 -2
-13 -11 -28 -19 -20 -10 -32 -12 -43 -4 -12 8 -12 9 2 5 8 -3 26 1 40 9 28 15
29 16 29 9z m3795 -5 c3 -5 1 -10 -4 -10 -6 0 -11 5 -11 10 0 6 2 10 4 10 3 0
8 -4 11 -10z m-2115 -20 c-6 -11 -13 -20 -16 -20 -2 0 0 9 6 20 6 11 13 20 16
20 2 0 0 -9 -6 -20z m2057 4 c-3 -3 -12 -4 -19 -1 -8 3 -5 6 6 6 11 1 17 -2
13 -5z m-3864 -11 c-7 -2 -19 -2 -25 0 -7 3 -2 5 12 5 14 0 19 -2 13 -5z m66
-12 c9 -6 10 -11 2 -15 -6 -4 -11 -2 -11 4 0 6 -4 8 -10 5 -5 -3 -10 -1 -10 4
0 13 10 14 29 2z m4098 -33 c-3 -8 -6 -5 -6 6 -1 11 2 17 5 13 3 -3 4 -12 1
-19z m136 -15 c-1 -21 -2 -55 -2 -75 -1 -21 -6 -38 -12 -38 -8 0 -9 20 -4 68
6 59 11 82 18 82 1 0 1 -17 0 -37z m-2533 -3 c-6 -11 -13 -20 -16 -20 -2 0 0
9 6 20 6 11 13 20 16 20 2 0 0 -9 -6 -20z m1810 10 c0 -5 -7 -7 -15 -4 -8 4
-15 8 -15 10 0 2 7 4 15 4 8 0 15 -4 15 -10z m-1020 -15 c0 -8 -4 -15 -10 -15
-5 0 -7 7 -4 15 4 8 8 15 10 15 2 0 4 -7 4 -15z m710 11 c0 -2 -8 -10 -17 -17
-16 -13 -17 -12 -4 4 13 16 21 21 21 13z m297 -38 c-3 -8 -6 -5 -6 6 -1 11 2
17 5 13 3 -3 4 -12 1 -19z m360 -30 c-3 -8 -6 -5 -6 6 -1 11 2 17 5 13 3 -3 4
-12 1 -19z m-718 9 c-2 -1 -13 -9 -24 -17 -19 -14 -19 -14 -6 3 7 9 18 17 24
17 6 0 8 -1 6 -3z m963 -4 c2 -5 1 -24 -2 -43 l-6 -35 -5 43 c-4 37 3 56 13
35z m-5172 -8 c0 -7 -30 -13 -34 -7 -3 4 4 9 15 9 10 1 19 0 19 -2z m4060 -19
c0 -3 -4 -8 -10 -11 -5 -3 -10 -1 -10 4 0 6 5 11 10 11 6 0 10 -2 10 -4z
m-5589 -23 c13 -16 12 -17 -3 -4 -10 7 -18 15 -18 17 0 8 8 3 21 -13z m5406
-19 c-3 -3 -12 -4 -19 -1 -8 3 -5 6 6 6 11 1 17 -2 13 -5z m1410 -31 c-3 -10
-5 -4 -5 12 0 17 2 24 5 18 2 -7 2 -21 0 -30z m-1074 -18 c-3 -9 -8 -14 -10
-11 -3 3 -2 9 2 15 9 16 15 13 8 -4z m-1553 -15 c-6 -11 -13 -20 -16 -20 -2 0
0 9 6 20 6 11 13 20 16 20 2 0 0 -9 -6 -20z m2510 6 c0 -2 -8 -10 -17 -17 -16
-13 -17 -12 -4 4 13 16 21 21 21 13z m107 -18 c-3 -8 -6 -5 -6 6 -1 11 2 17 5
13 3 -3 4 -12 1 -19z m-6632 -6 c-3 -3 -11 0 -18 7 -9 10 -8 11 6 5 10 -3 15
-9 12 -12z m6287 -9 c-3 -16 -7 -22 -10 -15 -4 13 4 42 11 42 2 0 2 -12 -1
-27z m-242 13 c0 -2 -8 -10 -17 -17 -16 -13 -17 -12 -4 4 13 16 21 21 21 13z
m-1315 -16 c-3 -5 -12 -10 -18 -10 -7 0 -6 4 3 10 19 12 23 12 15 0z m611 -32
c-19 -27 -21 -19 -4 18 7 14 14 21 16 15 2 -6 -4 -21 -12 -33z m-5186 28 c0
-9 -39 -13 -51 -5 -10 6 -4 9 19 9 17 0 32 -2 32 -4z m6337 -18 c-3 -8 -6 -5
-6 6 -1 11 2 17 5 13 3 -3 4 -12 1 -19z m-6430 6 c-3 -3 -12 -4 -19 -1 -8 3
-5 6 6 6 11 1 17 -2 13 -5z m5823 -129 c-208 -209 -601 -600 -606 -602 -2 -2
-3 -1 -1 2 5 10 722 725 727 725 2 0 -51 -56 -120 -125z m-2182 90 c-3 -3 -9
2 -12 12 -6 14 -5 15 5 6 7 -7 10 -15 7 -18z m2589 -37 c-2 -13 -4 -5 -4 17
-1 22 1 32 4 23 2 -10 2 -28 0 -40z m-1893 18 c-21 -15 -30 -14 -19 3 3 6 14
11 23 11 13 0 13 -2 -4 -14z m-644 -18 c0 -6 -6 -5 -15 2 -8 7 -15 14 -15 16
0 2 7 1 15 -2 8 -4 15 -11 15 -16z m-669 -21 c-10 -9 -11 -8 -5 6 3 10 9 15
12 12 3 -3 0 -11 -7 -18z m1599 -8 c0 -6 -4 -7 -10 -4 -5 3 -10 11 -10 16 0 6
5 7 10 4 6 -3 10 -11 10 -16z m1800 7 c0 -3 -4 -8 -10 -11 -5 -3 -10 -1 -10 4
0 6 5 11 10 11 6 0 10 -2 10 -4z m-2568 -28 c-7 -7 -12 -8 -12 -2 0 6 3 14 7
17 3 4 9 5 12 2 2 -3 -1 -11 -7 -17z m2444 -13 c-9 -9 -16 -13 -16 -8 0 12 22
34 28 28 2 -2 -3 -11 -12 -20z m-564 -27 c-6 -6 -7 0 -4 19 5 21 7 23 10 9 2
-10 0 -22 -6 -28z m509 -33 c-8 -14 -18 47 -12 65 3 9 8 0 11 -20 4 -19 4 -39
1 -45z m-331 40 c0 -14 -2 -25 -4 -25 -2 0 -6 11 -8 25 -3 14 -1 25 3 25 5 0
9 -11 9 -25z m-2120 0 c0 -2 -6 -5 -13 -8 -8 -3 -14 1 -14 8 0 7 6 11 14 8 7
-3 13 -6 13 -8z m781 -18 c-10 -9 -11 -8 -5 6 3 10 9 15 12 12 3 -3 0 -11 -7
-18z m-871 -1 c0 -2 -7 -6 -15 -10 -8 -3 -15 -1 -15 4 0 6 7 10 15 10 8 0 15
-2 15 -4z m120 -3 c0 -5 -10 -19 -21 -33 l-21 -25 18 33 c18 32 24 38 24 25z
m-2305 -13 c-3 -5 -12 -10 -18 -10 -7 0 -6 4 3 10 19 12 23 12 15 0z m3033
-25 c-6 -14 -13 -23 -15 -21 -5 5 15 46 22 46 3 0 -1 -11 -7 -25z m1665 -19
c4 -10 1 -13 -8 -9 -8 3 -12 9 -9 14 7 12 11 11 17 -5z m33 -28 c-15 -10 -19
-3 -10 24 7 22 7 22 14 3 4 -11 3 -23 -4 -27z m-3349 9 c0 -7 -9 -13 -19 -13
-18 0 -18 1 -2 13 10 7 18 13 19 13 1 0 2 -6 2 -13z m3606 -2 c-3 -9 -8 -14
-10 -11 -3 3 -2 9 2 15 9 16 15 13 8 -4z m-5103 1 c0 -2 -7 -7 -16 -10 -8 -3
-12 -2 -9 4 6 10 25 14 25 6z m1634 -12 c3 -8 2 -12 -4 -9 -6 3 -10 10 -10 16
0 14 7 11 14 -7z m721 -24 c-9 -16 -18 -30 -20 -30 -6 0 6 32 18 48 17 22 18
13 2 -18z m1935 0 c0 -5 -5 -10 -11 -10 -5 0 -7 5 -4 10 3 6 8 10 11 10 2 0 4
-4 4 -10z m-548 -42 c-8 -8 -9 -4 -5 13 4 13 8 18 11 10 2 -7 -1 -18 -6 -23z
m1320 -11 c-5 -20 -6 -20 -12 -1 -4 10 -5 25 -2 32 8 22 21 -6 14 -31z m-961
0 c-10 -9 -11 -8 -5 6 3 10 9 15 12 12 3 -3 0 -11 -7 -18z m-2646 3 c-3 -5
-12 -10 -18 -10 -7 0 -6 4 3 10 19 12 23 12 15 0z m-970 -18 c-3 -3 -11 0 -18
7 -9 10 -8 11 6 5 10 -3 15 -9 12 -12z m2990 8 c3 -5 1 -10 -4 -10 -6 0 -11 5
-11 10 0 6 2 10 4 10 3 0 8 -4 11 -10z m1392 -12 c-3 -8 -6 -5 -6 6 -1 11 2
17 5 13 3 -3 4 -12 1 -19z m-3537 -5 c-8 -3 -23 -10 -32 -15 -11 -5 -18 -5
-18 1 0 10 23 18 50 19 13 0 13 0 0 -5z m2130 -13 c0 -5 -2 -10 -4 -10 -3 0
-8 5 -11 10 -3 6 -1 10 4 10 6 0 11 -4 11 -10z m-1170 -20 c-6 -11 -13 -20
-16 -20 -2 0 0 9 6 20 6 11 13 20 16 20 2 0 0 -9 -6 -20z m2121 -33 c-10 -9
-11 -8 -5 6 3 10 9 15 12 12 3 -3 0 -11 -7 -18z m-708 -22 c-21 -16 -28 -12
-20 9 4 9 13 13 22 10 14 -6 13 -8 -2 -19z m-2750 8 c-7 -2 -19 -2 -25 0 -7 3
-2 5 12 5 14 0 19 -2 13 -5z m3978 -26 c-10 -9 -11 -8 -5 6 3 10 9 15 12 12 3
-3 0 -11 -7 -18z m-1864 -29 c-3 -8 -6 -5 -6 6 -1 11 2 17 5 13 3 -3 4 -12 1
-19z m606 7 c-3 -9 -8 -14 -10 -11 -3 3 -2 9 2 15 9 16 15 13 8 -4z m1255 -20
c-3 -3 -9 2 -12 12 -6 14 -5 15 5 6 7 -7 10 -15 7 -18z m-1274 -35 c-5 -5 -10
3 -11 18 -1 22 0 24 9 8 6 -10 6 -22 2 -26z m1296 9 c-13 -6 -28 -15 -32 -22
-5 -8 -8 -7 -8 5 0 16 18 25 50 26 8 0 4 -4 -10 -9z m-88 -31 c-7 -7 -12 -8
-12 -2 0 14 12 26 19 19 2 -3 -1 -11 -7 -17z m42 -24 c3 -8 2 -12 -4 -9 -6 3
-10 10 -10 16 0 14 7 11 14 -7z m-737 -46 c-3 -8 -6 -5 -6 6 -1 11 2 17 5 13
3 -3 4 -12 1 -19z m-4456 -5 c13 -16 12 -17 -3 -4 -10 7 -18 15 -18 17 0 8 8
3 21 -13z m5202 -3 c-7 -28 -23 -36 -23 -11 0 10 6 22 13 24 6 3 13 6 14 6 0
1 -1 -8 -4 -19z m-2778 -20 c-9 -16 -18 -30 -21 -30 -3 0 -2 5 1 10 3 6 1 10
-6 10 -6 0 -1 9 12 20 32 26 32 25 14 -10z m2455 -7 c-16 -52 -20 -58 -17 -26
3 30 2 32 -22 28 -22 -4 -5 5 46 24 1 1 -2 -11 -7 -26z m-1740 3 c0 -2 -7 -7
-16 -10 -8 -3 -12 -2 -9 4 6 10 25 14 25 6z m2031 -39 c-10 -9 -11 -8 -5 6 3
10 9 15 12 12 3 -3 0 -11 -7 -18z m-2781 -17 c-6 -11 -13 -20 -16 -20 -2 0 0
9 6 20 6 11 13 20 16 20 2 0 0 -9 -6 -20z m2650 10 c0 -5 -5 -10 -11 -10 -5 0
-7 5 -4 10 3 6 8 10 11 10 2 0 4 -4 4 -10z m-1700 -10 c0 -5 -5 -10 -11 -10
-5 0 -7 5 -4 10 3 6 8 10 11 10 2 0 4 -4 4 -10z m1330 0 c0 -5 -5 -10 -11 -10
-5 0 -7 5 -4 10 3 6 8 10 11 10 2 0 4 -4 4 -10z m500 -44 c0 -19 -7 -47 -16
-62 l-16 -29 8 30 c5 17 8 46 9 67 0 20 3 34 8 31 4 -2 7 -19 7 -37z m-1080
31 c0 -1 -46 -47 -102 -102 l-103 -100 100 103 c93 95 105 107 105 99z m1111
-20 c-10 -9 -11 -8 -5 6 3 10 9 15 12 12 3 -3 0 -11 -7 -18z m-316 -27 c3 -5
1 -10 -4 -10 -6 0 -11 5 -11 10 0 6 2 10 4 10 3 0 8 -4 11 -10z m95 -4 c0 -2
-8 -10 -17 -17 -16 -13 -17 -12 -4 4 13 16 21 21 21 13z m-5660 -21 c0 -2 -10
-9 -22 -15 -22 -11 -22 -10 -4 4 21 17 26 19 26 11z m5080 -5 c0 -5 -5 -10
-11 -10 -5 0 -7 5 -4 10 3 6 8 10 11 10 2 0 4 -4 4 -10z m-5365 -10 c3 -6 -1
-7 -9 -4 -18 7 -21 14 -7 14 6 0 13 -4 16 -10z m3492 -12 c-3 -8 -6 -5 -6 6
-1 11 2 17 5 13 3 -3 4 -12 1 -19z m-207 -8 c-6 -11 -13 -20 -16 -20 -2 0 0 9
6 20 6 11 13 20 16 20 2 0 0 -9 -6 -20z m2030 16 c0 -2 -8 -10 -17 -17 -16
-13 -17 -12 -4 4 13 16 21 21 21 13z m537 -18 c-3 -8 -6 -5 -6 6 -1 11 2 17 5
13 3 -3 4 -12 1 -19z m-5670 6 c-3 -3 -12 -4 -19 -1 -8 3 -5 6 6 6 11 1 17 -2
13 -5z m53 -8 c0 -2 -11 -6 -25 -8 -13 -3 -22 -1 -19 3 5 9 44 13 44 5z m3843
-21 c-3 -9 -8 -14 -10 -11 -3 3 -2 9 2 15 9 16 15 13 8 -4z m924 -27 c-3 -7
-5 -2 -5 12 0 14 2 19 5 13 2 -7 2 -19 0 -25z m-512 2 c3 -6 -1 -7 -9 -4 -18
7 -21 14 -7 14 6 0 13 -4 16 -10z m116 -17 c-12 -20 -14 -14 -5 12 4 9 9 14
11 11 3 -2 0 -13 -6 -23z m-1367 -13 c-10 -16 -20 -28 -22 -26 -4 5 28 56 35
56 2 0 -4 -13 -13 -30z m824 -15 c-3 -3 -9 2 -12 12 -6 14 -5 15 5 6 7 -7 10
-15 7 -18z m-32 -27 c-9 -12 -16 -19 -16 -15 0 11 24 47 28 42 2 -2 -3 -14
-12 -27z m804 9 c0 -1 -100 -101 -222 -222 l-223 -220 220 223 c204 206 225
227 225 219z m961 -20 c-10 -9 -11 -8 -5 6 3 10 9 15 12 12 3 -3 0 -11 -7 -18z
m-2591 -7 c-6 -11 -13 -20 -16 -20 -2 0 0 9 6 20 6 11 13 20 16 20 2 0 0 -9
-6 -20z m2814 8 c-3 -4 -9 -8 -15 -8 -5 0 -9 4 -9 8 0 5 7 9 15 9 8 0 12 -4 9
-9z m-1323 -71 c-10 -9 -11 -8 -5 6 3 10 9 15 12 12 3 -3 0 -11 -7 -18z m1040
-10 c-10 -9 -11 -8 -5 6 3 10 9 15 12 12 3 -3 0 -11 -7 -18z m229 3 c-6 -11
-13 -20 -16 -20 -2 0 0 9 6 20 6 11 13 20 16 20 2 0 0 -9 -6 -20z m-313 -22
c-3 -8 -6 -5 -6 6 -1 11 2 17 5 13 3 -3 4 -12 1 -19z m-204 -3 c-3 -9 -8 -14
-10 -11 -3 3 -2 9 2 15 9 16 15 13 8 -4z m-873 -5 c0 -5 -5 -10 -11 -10 -5 0
-7 5 -4 10 3 6 8 10 11 10 2 0 4 -4 4 -10z m-1440 -20 c-6 -11 -13 -20 -16
-20 -2 0 0 9 6 20 6 11 13 20 16 20 2 0 0 -9 -6 -20z m2540 -20 c12 -7 10 -9
-8 -7 -12 0 -22 5 -22 9 0 11 12 10 30 -2z m-1720 -10 c0 -5 -5 -10 -11 -10
-5 0 -7 5 -4 10 3 6 8 10 11 10 2 0 4 -4 4 -10z m1071 -23 c-10 -9 -11 -8 -5
6 3 10 9 15 12 12 3 -3 0 -11 -7 -18z m706 17 c-3 -3 -12 -4 -19 -1 -8 3 -5 6
6 6 11 1 17 -2 13 -5z m-477 -8 c0 -2 -8 -10 -17 -17 -16 -13 -17 -12 -4 4 13
16 21 21 21 13z m451 -37 c-5 -13 -10 -19 -10 -12 -1 15 10 45 15 40 3 -2 0
-15 -5 -28z m190 -1 c-11 -10 -13 -10 -7 0 4 6 2 12 -4 12 -6 0 -8 5 -4 11 4
8 9 8 17 0 8 -8 7 -14 -2 -23z m-1344 0 c-3 -8 -6 -5 -6 6 -1 11 2 17 5 13 3
-3 4 -12 1 -19z m-1837 8 c0 -2 -7 -7 -16 -10 -8 -3 -12 -2 -9 4 6 10 25 14
25 6z m350 -47 c-7 -11 -15 -17 -18 -12 -4 4 -11 12 -17 16 -6 5 -3 7 7 3 10
-3 20 -1 23 4 12 19 15 10 5 -11z m1937 -31 c-3 -7 -5 -2 -5 12 0 14 2 19 5
13 2 -7 2 -19 0 -25z m-1287 18 c0 -2 -8 -10 -17 -17 -16 -13 -17 -12 -4 4 13
16 21 21 21 13z m1963 -50 c-5 -31 -8 -35 -16 -21 -6 12 -5 25 4 41 16 32 20
26 12 -20z m-2208 14 c3 -5 1 -10 -4 -10 -6 0 -11 5 -11 10 0 6 2 10 4 10 3 0
8 -4 11 -10z m200 -30 c-3 -5 -12 -7 -20 -3 -21 7 -19 13 6 13 11 0 18 -4 14
-10z m195 -24 c0 -2 -7 -6 -15 -10 -8 -3 -15 -1 -15 4 0 6 7 10 15 10 8 0 15
-2 15 -4z m1954 -21 c-9 -14 -18 -25 -21 -25 -5 0 5 18 20 38 17 22 18 13 1
-13z m-2834 -15 c-6 -11 -13 -20 -16 -20 -2 0 0 9 6 20 6 11 13 20 16 20 2 0
0 -9 -6 -20z m2065 -10 c-3 -5 -12 -10 -18 -10 -7 0 -6 4 3 10 19 12 23 12 15
0z m735 -5 c0 -2 -10 -9 -22 -15 -22 -11 -22 -10 -4 4 21 17 26 19 26 11z
m-2319 -70 c5 4 9 2 9 -3 0 -6 -7 -13 -16 -16 -8 -3 -12 -10 -9 -16 3 -5 2
-10 -4 -10 -15 0 -23 18 -11 25 5 3 11 23 12 43 l1 37 4 -33 c2 -18 9 -30 14
-27z m2333 39 c3 -8 2 -12 -4 -9 -6 3 -10 10 -10 16 0 14 7 11 14 -7z m-1414
3 c0 -1 -59 -61 -132 -132 -73 -72 -129 -125 -125 -120 9 13 251 255 255 255
1 0 2 -1 2 -3z m-1440 -27 c-6 -11 -13 -20 -16 -20 -2 0 0 9 6 20 6 11 13 20
16 20 2 0 0 -9 -6 -20z m2749 -28 c-7 -10 -19 -19 -27 -19 -11 0 -9 6 8 19 12
10 24 18 26 18 2 0 -1 -8 -7 -18z m-99 -7 c0 -8 -4 -15 -10 -15 -5 0 -7 7 -4
15 4 8 8 15 10 15 2 0 4 -7 4 -15z m-639 -9 c17 10 9 -3 -13 -22 -13 -10 -18
-12 -11 -5 6 7 10 19 9 25 -2 6 -1 8 1 3 3 -4 9 -5 14 -1z m213 -11 c3 -8 1
-15 -4 -15 -6 0 -10 7 -10 15 0 8 2 15 4 15 2 0 6 -7 10 -15z m-444 -9 c0 -2
-8 -10 -17 -17 -16 -13 -17 -12 -4 4 13 16 21 21 21 13z m-2456 -21 c-7 -16
-24 -21 -24 -6 0 8 7 13 27 20 1 1 0 -6 -3 -14z m626 -10 c0 -8 -4 -15 -10
-15 -5 0 -10 7 -10 15 0 8 5 15 10 15 6 0 10 -7 10 -15z m547 -37 c-2 -13 -4
-5 -4 17 -1 22 1 32 4 23 2 -10 2 -28 0 -40z m2165 30 c-7 -7 -12 -8 -12 -2 0
14 12 26 19 19 2 -3 -1 -11 -7 -17z m-2082 -9 c0 -6 -4 -7 -10 -4 -5 3 -10 11
-10 16 0 6 5 7 10 4 6 -3 10 -11 10 -16z m955 -31 c-6 -23 -17 -44 -24 -46
-10 -3 -10 0 -2 14 6 11 15 31 21 47 15 43 19 32 5 -15z m-3699 17 c-11 -8
-25 -15 -30 -15 -6 1 0 7 14 15 32 19 40 18 16 0z m4841 -1 c-3 -3 -12 -4 -19
-1 -8 3 -5 6 6 6 11 1 17 -2 13 -5z m-5230 -30 c-3 -3 -12 -4 -19 -1 -8 3 -5
6 6 6 11 1 17 -2 13 -5z m2446 -29 c-3 -9 -8 -14 -10 -11 -3 3 -2 9 2 15 9 16
15 13 8 -4z m2477 6 c0 -5 -7 -11 -14 -14 -10 -4 -13 -1 -9 9 6 15 23 19 23 5z
m-1880 -41 c-6 -11 -13 -20 -16 -20 -2 0 0 9 6 20 6 11 13 20 16 20 2 0 0 -9
-6 -20z m1820 13 c0 -9 -49 -33 -64 -33 -6 1 5 9 24 20 41 22 40 22 40 13z
m-2460 -53 c-12 -22 -21 -26 -17 -7 2 10 17 26 25 27 1 0 -2 -9 -8 -20z m-755
0 c-3 -5 -12 -10 -18 -10 -7 0 -6 4 3 10 19 12 23 12 15 0z m2065 7 c0 -2 -19
-21 -42 -42 l-43 -40 40 43 c36 39 45 47 45 39z m1010 -22 c-14 -8 -29 -14
-35 -14 -5 0 1 6 15 14 14 8 30 14 35 14 6 0 -1 -6 -15 -14z m118 -5 c-7 -10
-14 -17 -17 -15 -4 4 18 35 25 35 2 0 -1 -9 -8 -20z m-187 -33 c-16 -16 -25
-1 -10 16 8 8 16 11 18 5 2 -5 -2 -15 -8 -21z m-2281 3 c-6 -11 -13 -20 -16
-20 -2 0 0 9 6 20 6 11 13 20 16 20 2 0 0 -9 -6 -20z m-103 4 c-3 -3 -12 -4
-19 -1 -8 3 -5 6 6 6 11 1 17 -2 13 -5z m2833 -19 c-7 -8 -16 -13 -20 -10 -5
3 -11 0 -13 -5 -3 -6 -4 -5 -3 2 2 7 8 13 14 13 5 0 14 3 18 8 13 13 17 7 4
-8z m-1870 -35 c-6 -12 -14 -20 -17 -17 -2 3 1 14 8 26 17 26 24 19 9 -9z
m-1690 16 c0 -2 -7 -7 -16 -10 -8 -3 -12 -2 -9 4 6 10 25 14 25 6z m2080 1 c0
-1 -44 -45 -97 -97 -54 -52 -70 -66 -35 -30 49 52 60 68 50 78 -9 9 -6 12 13
12 14 0 34 9 44 20 17 18 25 24 25 17z m1430 -57 c-6 -11 -13 -20 -16 -20 -2
0 0 9 6 20 6 11 13 20 16 20 2 0 0 -9 -6 -20z m-1016 -5 c-4 -8 -11 -15 -16
-15 -6 0 -5 6 2 15 7 8 14 15 16 15 2 0 1 -7 -2 -15z m578 -25 c-2 -17 -8 -33
-14 -36 -5 -3 -6 6 -2 23 12 50 23 59 16 13z m-2317 -10 c-9 -16 -18 -30 -21
-30 -2 0 2 14 11 30 9 17 18 30 21 30 2 0 -2 -13 -11 -30z m2485 -35 c-7 -9
-15 -13 -19 -10 -3 3 1 10 9 15 21 14 24 12 10 -5z m-2530 -45 c-6 -11 -13
-20 -16 -20 -2 0 0 9 6 20 6 11 13 20 16 20 2 0 0 -9 -6 -20z m1665 -26 c-8
-16 -15 -23 -15 -16 0 13 22 53 27 48 2 -2 -3 -16 -12 -32z m795 13 c0 -2 -10
-12 -22 -23 l-23 -19 19 23 c18 21 26 27 26 19z m-1388 -110 c-51 -51 -89 -97
-85 -102 4 -4 3 -5 -3 -2 -6 4 -19 -2 -28 -12 -10 -10 -14 -21 -9 -23 4 -3 3
-4 -3 -2 -14 3 -207 -189 -199 -199 3 -4 2 -5 -2 -2 -3 3 -16 -3 -27 -12 -12
-9 73 77 187 193 114 115 204 214 200 219 -4 4 -3 5 3 2 6 -4 19 2 29 13 10
11 21 20 24 20 3 0 -36 -42 -87 -93z m1293 84 c3 -5 2 -12 -3 -15 -5 -3 -9 1
-9 9 0 17 3 19 12 6z m-2407 -31 c-7 -10 -14 -17 -17 -15 -4 4 18 35 25 35 2
0 -1 -9 -8 -20z m2622 -14 c0 -3 -15 -14 -32 -26 l-33 -22 30 26 c31 27 35 29
35 22z m-3659 -19 c-6 -8 -9 -16 -6 -19 3 -2 -2 -5 -10 -5 -18 0 -19 4 -2 22
15 18 33 20 18 2z m1009 -17 c-6 -11 -13 -20 -16 -20 -2 0 0 9 6 20 6 11 13
20 16 20 2 0 0 -9 -6 -20z m2580 -19 c0 -5 -8 -12 -18 -15 -10 -4 -29 -16 -41
-27 -12 -12 -24 -19 -26 -17 -6 6 20 33 50 50 38 20 35 20 35 9z m-244 -46
c-10 -15 -15 -33 -12 -41 3 -8 1 -14 -3 -14 -21 0 -20 34 1 60 28 34 37 30 14
-5z m-2376 -5 c-6 -11 -13 -20 -16 -20 -2 0 0 9 6 20 6 11 13 20 16 20 2 0 0
-9 -6 -20z m1848 12 c15 12 16 11 3 -4 -14 -19 -32 -15 -30 5 0 8 2 8 6 -1 4
-10 8 -10 21 0z m-2918 -6 c0 -2 -7 -7 -16 -10 -8 -3 -12 -2 -9 4 6 10 25 14
25 6z m1215 -14 c-3 -3 -11 0 -18 7 -9 10 -8 11 6 5 10 -3 15 -9 12 -12z
m2325 -52 c0 -13 -6 -20 -17 -19 -11 0 -13 3 -5 6 6 2 12 11 12 19 0 8 2 14 5
14 3 0 5 -9 5 -20z m-2510 -11 c-7 -11 -14 -18 -17 -15 -3 3 0 12 7 21 18 21
23 19 10 -6z m1610 6 c-7 -8 -20 -15 -29 -15 -11 0 -8 5 9 14 33 19 35 19 20
1z m752 2 c-6 -7 -26 -13 -44 -14 l-33 -2 40 14 c22 7 42 13 44 14 2 1 -1 -5
-7 -12z m-3886 -15 c-10 -2 -22 0 -28 6 -6 6 0 7 19 4 21 -5 23 -7 9 -10z
m294 10 c0 -4 -12 -8 -27 -9 -24 -1 -25 -1 -8 7 26 11 35 12 35 2z m104 0 c3
-5 -1 -9 -9 -9 -8 0 -12 4 -9 9 3 4 7 8 9 8 2 0 6 -4 9 -8z m556 -8 c0 -2 -11
-4 -25 -4 -14 0 -25 4 -25 9 0 4 11 6 25 3 14 -2 25 -6 25 -8z m901 -2 c-7 -2
-18 1 -23 6 -8 8 -4 9 13 5 13 -4 18 -8 10 -11z m1069 8 c0 -5 -12 -10 -27 -9
l-28 1 25 8 c14 4 26 8 28 9 1 1 2 -3 2 -9z m320 0 c0 -5 -5 -10 -11 -10 -5 0
-7 5 -4 10 3 6 8 10 11 10 2 0 4 -4 4 -10z m485 0 c-3 -5 -12 -10 -18 -10 -7
0 -6 4 3 10 19 12 23 12 15 0z m-1688 -6 c-3 -3 -12 -4 -19 -1 -8 3 -5 6 6 6
11 1 17 -2 13 -5z m397 -9 c-4 -8 -8 -15 -10 -15 -2 0 -4 7 -4 15 0 8 4 15 10
15 5 0 7 -7 4 -15z m-504 -25 c13 -8 13 -10 -2 -10 -9 0 -20 5 -23 10 -8 13 5
13 25 0z m1725 -28 c-3 -3 -11 0 -18 7 -9 10 -8 11 6 5 10 -3 15 -9 12 -12z
m-2200 -42 c-9 -16 -18 -30 -21 -30 -2 0 2 14 11 30 9 17 18 30 21 30 2 0 -2
-13 -11 -30z m345 10 c-8 -5 -19 -10 -25 -10 -5 0 -3 5 5 10 8 5 20 10 25 10
6 0 3 -5 -5 -10z m1115 0 c-3 -5 -11 -10 -16 -10 -6 0 -7 5 -4 10 3 6 11 10
16 10 6 0 7 -4 4 -10z m825 -20 c0 -5 -7 -7 -15 -4 -8 4 -15 8 -15 10 0 2 7 4
15 4 8 0 15 -4 15 -10z m38 -24 c-2 0 -14 -10 -27 -21 l-25 -20 20 26 c10 15
23 25 27 22 5 -3 7 -6 5 -7z m-2443 -26 c3 -6 -1 -7 -9 -4 -18 7 -21 14 -7 14
6 0 13 -4 16 -10z m86 -13 c-6 -8 -8 -17 -4 -20 3 -4 -1 -7 -10 -7 -9 0 -17
-4 -17 -8 0 -5 -6 -16 -13 -26 -12 -16 -13 -16 -13 3 0 11 4 17 8 15 4 -3 8
-1 8 3 0 13 33 53 44 53 5 0 3 -6 -3 -13z m2296 -19 c-3 -8 -6 -5 -6 6 -1 11
2 17 5 13 3 -3 4 -12 1 -19z m-573 -32 c-3 -9 -10 -16 -16 -16 -5 0 -6 -5 -2
-12 4 -7 3 -8 -5 -4 -11 7 -7 20 14 42 13 15 17 11 9 -10z m-1224 -21 c0 -8
-4 -15 -10 -15 -5 0 -10 7 -10 15 0 8 5 15 10 15 6 0 10 -7 10 -15z m-498 -25
c-2 -16 -6 -30 -8 -30 -2 0 -4 14 -4 30 0 17 4 30 8 30 5 0 7 -13 4 -30z m888
-16 c-69 -70 -320 -318 -328 -324 -4 -2 17 20 46 51 29 30 49 59 45 64 -5 4
-3 5 3 2 14 -8 227 207 216 218 -4 5 -2 5 4 2 6 -4 19 2 29 13 10 11 21 20 24
20 3 0 -15 -21 -39 -46z m1250 42 c0 -2 -8 -10 -17 -17 -16 -13 -17 -12 -4 4
13 16 21 21 21 13z m67 -2 c-3 -3 -12 -4 -19 -1 -8 3 -5 6 6 6 11 1 17 -2 13
-5z m-2275 -36 c-7 -7 -12 -8 -12 -2 0 14 12 26 19 19 2 -3 -1 -11 -7 -17z
m1878 7 c0 -11 -29 -11 -33 -1 -4 10 1 12 14 9 10 -3 19 -7 19 -8z m-210 -3
c0 -4 -15 -8 -32 -9 -30 -1 -31 -1 -8 7 34 11 40 11 40 2z m-1750 -26 c0 -2
-8 -10 -17 -17 -16 -13 -17 -12 -4 4 13 16 21 21 21 13z m1224 -5 c3 -5 -5 -8
-18 -7 -13 0 -22 4 -19 9 6 10 31 9 37 -2z m-503 -48 c13 -16 12 -17 -3 -4
-17 13 -22 21 -14 21 2 0 10 -8 17 -17z m-696 -24 c-9 -17 -19 -29 -22 -26 -5
5 25 57 33 57 3 0 -3 -14 -11 -31z m545 21 c0 -5 -8 -10 -17 -10 -15 0 -16 2
-3 10 19 12 20 12 20 0z m93 3 c-7 -2 -21 -2 -30 0 -10 3 -4 5 12 5 17 0 24
-2 18 -5z m397 -23 c0 -5 -5 -10 -11 -10 -5 0 -7 5 -4 10 3 6 8 10 11 10 2 0
4 -4 4 -10z m-1155 -9 c-3 -5 5 -11 17 -14 13 -2 6 -4 -14 -4 -33 0 -35 2 -20
13 20 16 25 17 17 5z m-152 -28 c-7 -2 -19 -2 -25 0 -7 3 -2 5 12 5 14 0 19
-2 13 -5z m237 -23 c-6 -11 -12 -20 -14 -20 -2 0 -2 9 1 20 3 11 9 20 15 20 5
0 4 -9 -2 -20z m1710 16 c0 -2 -7 -7 -16 -10 -8 -3 -12 -2 -9 4 6 10 25 14 25
6z m-2229 -23 c12 -14 12 -16 0 -8 -8 4 -28 12 -45 16 l-31 7 31 1 c19 1 37
-6 45 -16z m2362 3 c4 -9 -4 -13 -25 -14 -17 0 -34 -5 -37 -10 -3 -5 -15 -6
-26 -2 -16 6 -11 9 22 14 24 4 45 12 49 17 7 12 11 11 17 -5z m84 -2 c-3 -3
-12 -4 -19 -1 -8 3 -5 6 6 6 11 1 17 -2 13 -5z m-2370 -20 c-3 -3 -12 -4 -19
-1 -8 3 -5 6 6 6 11 1 17 -2 13 -5z m56 -11 c-7 -2 -19 -2 -25 0 -7 3 -2 5 12
5 14 0 19 -2 13 -5z m2041 -8 c-8 -20 -40 -28 -64 -15 -26 14 -25 20 1 20 11
0 17 -4 14 -10 -10 -16 21 -12 35 5 16 19 21 19 14 0z m-1694 -25 c-6 -11 -13
-20 -16 -20 -2 0 0 9 6 20 6 11 13 20 16 20 2 0 0 -9 -6 -20z m1590 -5 c0 -2
-10 -9 -22 -15 -22 -11 -22 -10 -4 4 21 17 26 19 26 11z m-580 -15 c8 -5 11
-10 5 -10 -5 0 -17 5 -25 10 -8 5 -10 10 -5 10 6 0 17 -5 25 -10z m-1040 -31
c-7 -11 -14 -18 -17 -15 -3 3 0 12 7 21 18 21 23 19 10 -6z m964 -14 c-7 -17
-20 -20 -29 -6 -3 5 3 12 12 14 10 3 19 5 20 6 1 0 0 -6 -3 -14z m-417 -11
c-3 -3 -12 -4 -19 -1 -8 3 -5 6 6 6 11 1 17 -2 13 -5z m370 0 c-3 -3 -12 -4
-19 -1 -8 3 -5 6 6 6 11 1 17 -2 13 -5z m576 -11 c-7 -2 -19 -2 -25 0 -7 3 -2
5 12 5 14 0 19 -2 13 -5z m-837 -26 c4 -4 -2 -7 -14 -7 -12 0 -22 4 -22 9 0
10 26 9 36 -2z m133 1 c-2 -2 -20 -16 -39 -33 l-35 -30 29 33 c17 17 34 32 40
32 5 0 7 -1 5 -2z m133 -40 c-8 -8 -9 -4 -5 13 4 13 8 18 11 10 2 -7 -1 -18
-6 -23z m-10 -495 c23 -20 24 -94 3 -127 -16 -24 -71 -53 -81 -43 -3 3 8 13
25 22 17 8 31 17 31 19 0 3 2 11 5 19 5 10 -1 13 -26 9 -37 -5 -59 16 -59 57
0 53 62 80 102 44z m146 5 c17 -17 15 -43 -3 -58 -14 -11 -13 -14 5 -27 26
-18 26 -47 0 -73 -22 -22 -79 -27 -98 -8 -17 17 -15 38 3 38 8 0 15 -6 15 -14
0 -19 30 -29 46 -15 8 6 14 24 14 40 0 23 -6 30 -27 35 -26 7 -26 7 -5 15 30
11 38 37 19 56 -18 18 -37 9 -37 -18 0 -10 -7 -19 -15 -19 -21 0 -19 37 3 49
23 14 65 14 80 -1z m-582 -9 c3 -6 9 -35 13 -65 l8 -54 -30 0 c-24 0 -27 2
-18 14 7 8 11 32 9 53 -2 30 -7 38 -23 38 -16 0 -21 -8 -23 -44 -2 -28 1 -47
10 -52 8 -6 -2 -8 -27 -8 -22 0 -34 3 -27 6 15 6 16 95 1 110 -9 9 3 12 45 12
30 0 58 -5 62 -10z m244 -29 c0 -6 -28 -10 -65 -10 -37 0 -65 4 -65 10 0 6 28
10 65 10 37 0 65 -4 65 -10z m0 -50 c0 -6 -28 -10 -65 -10 -37 0 -65 4 -65 10
0 6 28 10 65 10 37 0 65 -4 65 -10z m-890 -260 c0 -5 -5 -32 -11 -61 -9 -42
-9 -53 2 -61 11 -7 9 -8 -6 -6 -14 3 -19 10 -16 23 7 40 6 49 -11 53 -12 2
-22 -6 -30 -23 -11 -24 -10 -29 7 -42 20 -15 20 -15 0 -11 -44 7 -19 88 27 88
23 0 36 29 17 41 -11 7 -11 9 4 9 9 0 17 -4 17 -10z m520 3 c0 -5 -7 -33 -15
-63 -11 -42 -12 -56 -2 -62 9 -6 9 -8 0 -8 -21 0 -22 15 -8 70 11 42 12 56 2
62 -8 5 -7 8 6 8 9 0 17 -3 17 -7z m466 -10 c-19 -64 -24 -108 -13 -115 7 -4
-6 -6 -28 -5 -39 2 -40 3 -40 37 0 31 4 36 33 45 27 8 33 14 29 32 -3 15 1 23
10 23 9 0 12 -7 9 -17z m1016 -44 c-13 -52 -13 -62 -1 -70 11 -7 10 -9 -5 -9
-16 0 -18 5 -11 43 5 23 9 54 9 70 1 15 6 27 12 27 8 0 7 -18 -4 -61z m-2312
41 c0 -5 -5 -10 -11 -10 -5 0 -7 5 -4 10 3 6 8 10 11 10 2 0 4 -4 4 -10z
m2280 6 c0 -3 -4 -8 -10 -11 -5 -3 -10 -1 -10 4 0 6 5 11 10 11 6 0 10 -2 10
-4z m-496 -15 c-17 -4 -37 -11 -45 -15 -8 -4 -5 0 5 8 11 9 31 16 45 15 24 -1
24 -2 -5 -8z m-150 -15 c-4 -10 2 -16 18 -18 26 -3 38 -43 18 -62 -9 -8 -10
-4 -5 16 8 32 -15 48 -40 28 -22 -18 -18 -39 8 -50 17 -8 18 -9 3 -7 -33 4
-42 32 -23 71 16 35 32 51 21 22z m-44 -6 c0 -5 -16 -10 -35 -10 -19 0 -35 5
-35 10 0 6 16 10 35 10 19 0 35 -4 35 -10z m-1815 -43 c0 -44 0 -44 -35 -43
-29 1 -36 5 -38 24 -4 29 24 62 52 62 19 0 21 -6 21 -43z m85 33 c0 -5 -7 -7
-15 -4 -8 4 -15 8 -15 10 0 2 7 4 15 4 8 0 15 -4 15 -10z m80 1 c0 -5 -9 -7
-20 -4 -26 7 -26 -8 1 -31 19 -16 20 -19 6 -33 -17 -17 -47 -11 -47 9 0 10 3
9 9 -1 6 -9 16 -11 27 -7 18 7 17 9 -5 25 -16 12 -22 24 -18 35 7 17 47 23 47
7z m46 -36 c0 -25 -4 -45 -7 -45 -14 0 -17 14 -8 43 6 22 5 33 -4 39 -9 6 -7
8 4 8 13 0 16 -10 15 -45z m55 24 c-2 -8 -6 -26 -9 -41 -2 -16 -8 -28 -12 -28
-5 0 -4 16 2 36 7 28 7 39 -4 46 -9 7 -8 8 7 5 12 -2 18 -9 16 -18z m45 -18
c-4 -27 -2 -41 7 -44 7 -3 4 -6 -7 -6 -16 -1 -17 4 -11 35 4 26 2 39 -7 45
-10 7 -8 9 6 9 16 0 18 -5 12 -39z m109 -4 c0 -44 0 -44 -35 -43 -29 1 -36 5
-38 24 -4 29 24 62 52 62 19 0 21 -6 21 -43z m203 12 c6 -49 -47 -76 -71 -38
-8 13 -6 24 7 44 23 35 60 31 64 -6z m93 6 c-7 -40 -6 -49 11 -53 12 -2 22 6
30 23 11 24 10 29 -7 42 -20 15 -20 15 0 11 26 -4 31 -33 10 -64 -11 -17 -23
-24 -35 -21 -22 6 -37 -23 -18 -35 9 -5 3 -8 -15 -8 -25 0 -27 2 -14 14 21 21
31 97 15 108 -9 6 -7 8 7 6 14 -3 19 -10 16 -23z m152 4 c15 -25 -17 -71 -46
-67 -28 4 -35 49 -11 72 19 20 43 18 57 -5z m95 12 c2 -1 0 -6 -4 -12 -4 -8
-9 -8 -13 -1 -10 17 -26 0 -38 -38 l-10 -35 1 46 c1 45 2 46 31 44 17 -2 31
-3 33 -4z m180 -22 c6 -49 -47 -76 -71 -38 -8 13 -6 24 7 44 23 35 60 31 64
-6z m100 -6 c2 -24 -2 -34 -18 -43 -12 -6 -28 -9 -37 -6 -12 5 -14 1 -11 -19
4 -20 1 -25 -15 -25 -15 0 -17 3 -9 13 19 23 32 101 19 109 -7 4 6 6 28 5 37
-2 40 -4 43 -34z m92 23 c0 -8 -4 -18 -10 -21 -6 -3 -7 1 -4 9 4 10 1 16 -9
16 -22 0 -32 -20 -16 -31 10 -6 11 -9 2 -9 -18 0 -16 -28 2 -33 12 -4 12 -5
-1 -3 -30 2 -40 31 -21 60 19 28 57 36 57 12z m80 7 c0 -5 -11 -8 -24 -8 -13
0 -22 3 -19 8 2 4 13 7 24 7 10 0 19 -3 19 -7z m195 -36 c0 -44 0 -44 -35 -43
-29 1 -36 5 -38 24 -4 29 24 62 52 62 19 0 21 -6 21 -43z m50 4 c-5 -33 -3
-40 12 -45 15 -4 15 -4 -2 -3 -16 2 -20 9 -18 37 1 19 -4 38 -10 42 -8 5 -6 8
6 8 16 0 18 -5 12 -39z m52 17 c-3 -8 -6 -5 -6 6 -1 11 2 17 5 13 3 -3 4 -12
1 -19z m463 14 c0 -5 -7 -31 -15 -60 -16 -53 -46 -76 -69 -52 -8 10 -7 11 8 6
18 -6 46 8 46 24 0 3 -10 6 -22 6 -30 -1 -37 38 -12 65 17 19 64 27 64 11z
m51 -13 c-2 -8 -6 -26 -9 -41 -2 -16 -8 -28 -12 -28 -5 0 -4 16 2 36 7 28 7
39 -4 46 -9 7 -8 8 7 5 12 -2 18 -9 16 -18z m52 14 c2 -5 -2 -26 -10 -48 l-13
-40 6 39 c4 27 1 42 -8 47 -10 7 -9 9 4 9 9 0 19 -3 21 -7z m46 -20 c-1 -22
-2 -23 -6 -8 -3 11 -10 23 -17 27 -7 5 -5 8 7 8 12 0 17 -7 16 -27z m106 -16
c0 -44 0 -44 -35 -43 -29 1 -36 5 -38 24 -4 29 24 62 52 62 19 0 21 -6 21 -43z
m51 4 c-4 -27 -2 -41 7 -44 7 -3 4 -6 -7 -6 -16 -1 -17 4 -11 35 4 26 2 39 -7
45 -10 7 -8 9 6 9 16 0 18 -5 12 -39z m194 22 c0 -15 -2 -15 -9 -4 -5 8 -16
11 -25 8 -21 -8 -22 -64 -1 -70 11 -4 10 -4 -2 -3 -22 2 -30 50 -12 72 16 20
49 18 49 -3z m93 -4 c15 -25 -17 -71 -46 -67 -28 4 -35 49 -11 72 19 20 43 18
57 -5z m152 -26 c0 -25 -4 -41 -10 -39 -5 2 -9 7 -8 12 8 47 7 59 -6 59 -14 0
-21 -10 -39 -55 -8 -21 -9 -18 -5 18 8 61 -25 55 -44 -8 l-10 -35 1 46 1 45
60 0 60 -1 0 -42z m-2835 -17 c0 -3 -11 1 -25 10 -14 9 -25 22 -25 30 0 8 9 5
25 -10 14 -13 25 -26 25 -30z m1915 40 c-12 -8 -16 -20 -12 -35 3 -11 1 -21
-4 -21 -5 0 -9 10 -9 23 0 24 17 47 34 47 5 0 2 -6 -9 -14z m-605 -16 c8 -5
12 -11 9 -14 -3 -3 -14 1 -25 9 -21 16 -8 20 16 5z m547 -22 c-3 -7 -5 -2 -5
12 0 14 2 19 5 13 2 -7 2 -19 0 -25z m97 -10 c7 -5 5 -8 -5 -8 -22 0 -29 9
-21 28 5 13 6 14 10 1 3 -7 10 -17 16 -21z m-1984 -11 c11 -5 9 -6 -4 -4 -11
1 -21 9 -23 17 -3 10 -2 11 4 4 4 -6 15 -14 23 -17z m1335 6 c9 4 14 3 10 -3
-8 -12 -42 -13 -49 -1 -3 4 -3 11 1 15 4 3 10 1 14 -5 4 -7 14 -9 24 -6z m940
-5 c6 -4 2 -8 -7 -8 -10 0 -18 7 -18 17 0 9 3 12 8 7 4 -5 12 -12 17 -16z
m255 2 c0 -5 -4 -10 -10 -10 -5 0 -10 5 -10 10 0 6 5 10 10 10 6 0 10 -4 10
-10z m-619 -17 c13 -16 12 -17 -3 -4 -17 13 -22 21 -14 21 2 0 10 -8 17 -17z
m62 -20 c-7 -2 -21 -2 -30 0 -10 3 -4 5 12 5 17 0 24 -2 18 -5z"/>
<path d="M4021 626 c-7 -8 -11 -27 -9 -43 2 -22 9 -29 31 -31 25 -3 27 0 27
30 0 49 -26 72 -49 44z"/>
<path d="M3922 228 c-16 -16 -15 -58 1 -58 20 0 37 22 37 47 0 25 -19 30 -38
11z"/>
<path d="M2412 228 c-14 -14 -16 -58 -3 -58 27 0 41 15 41 41 0 30 -17 38 -38
17z"/>
<path d="M2832 228 c-14 -14 -16 -58 -3 -58 27 0 41 15 41 41 0 30 -17 38 -38
17z"/>
<path d="M3037 233 c-13 -12 -7 -63 6 -63 20 0 37 22 37 47 0 22 -27 33 -43
16z"/>
<path d="M3280 225 c-17 -20 -8 -50 15 -50 15 0 21 8 23 33 4 35 -16 44 -38
17z"/>
<path d="M3557 233 c-13 -12 -7 -63 6 -63 20 0 37 22 37 47 0 22 -27 33 -43
16z"/>
<path d="M3662 228 c-16 -16 -15 -58 1 -58 20 0 37 22 37 47 0 25 -19 30 -38
11z"/>
<path d="M4022 228 c-14 -14 -16 -58 -3 -58 27 0 41 15 41 41 0 30 -17 38 -38
17z"/>
<path d="M4582 228 c-16 -16 -16 -58 1 -58 21 0 35 14 38 40 4 28 -19 38 -39
18z"/>
<path d="M4842 228 c-14 -14 -16 -58 -3 -58 27 0 41 15 41 41 0 30 -17 38 -38
17z"/>
<path d="M5180 225 c-17 -20 -8 -50 15 -50 15 0 21 8 23 33 4 35 -16 44 -38
17z"/>
<path d="M11950 9292 c0 -25 34 -52 66 -52 31 0 34 2 34 30 0 23 -4 30 -20 30
-11 0 -20 -4 -20 -10 0 -5 5 -10 10 -10 6 0 10 -4 10 -10 0 -19 -42 -10 -47
10 -5 19 -33 29 -33 12z"/>
<path d="M12072 9270 c2 -20 9 -26 36 -28 18 -2 32 1 32 7 0 6 -11 11 -25 11
-14 0 -25 5 -25 10 0 6 14 10 30 10 17 0 30 4 30 9 0 5 -18 8 -40 7 -38 -1
-41 -3 -38 -26z"/>
<path d="M12160 9270 c0 -16 5 -30 10 -30 6 0 10 14 10 30 0 17 -4 30 -10 30
-5 0 -10 -13 -10 -30z"/>
<path d="M12240 9291 c-39 -11 -34 -45 8 -49 30 -3 32 -1 32 27 0 33 -1 33
-40 22z m20 -21 c0 -5 -8 -10 -17 -10 -15 0 -16 2 -3 10 19 12 20 12 20 0z"/>
<path d="M12300 9270 c0 -16 4 -30 9 -30 5 0 11 14 13 30 3 20 0 30 -9 30 -8
0 -13 -12 -13 -30z"/>
<path d="M12402 9273 c3 -25 7 -28 41 -30 35 -1 37 1 37 28 0 18 -5 29 -14 29
-8 0 -13 -8 -12 -17 0 -10 -7 -19 -18 -21 -15 -3 -18 0 -13 17 3 14 0 21 -10
21 -10 0 -13 -9 -11 -27z"/>
<path d="M12494 9288 c-3 -4 0 -17 6 -28 11 -21 54 -28 65 -10 4 6 -5 10 -19
10 -14 0 -26 5 -26 10 0 6 11 10 25 10 14 0 25 4 25 8 0 10 -70 10 -76 0z"/>
<path d="M12580 9292 c0 -5 10 -14 23 -20 l22 -11 -22 0 c-13 -1 -23 -6 -23
-12 0 -17 54 -6 58 12 2 9 -8 20 -23 27 -31 14 -35 15 -35 4z"/>
<path d="M12652 9270 c2 -20 9 -26 36 -28 18 -2 32 1 32 7 0 6 -11 11 -25 11
-14 0 -25 5 -25 10 0 6 14 10 30 10 17 0 30 4 30 9 0 5 -18 8 -40 7 -38 -1
-41 -3 -38 -26z"/>
<path d="M12740 9270 c0 -16 5 -30 10 -30 6 0 10 14 10 30 0 17 -4 30 -10 30
-5 0 -10 -13 -10 -30z"/>
<path d="M12790 9270 c0 -16 5 -30 10 -30 6 0 10 14 10 30 0 17 -4 30 -10 30
-5 0 -10 -13 -10 -30z"/>
<path d="M12830 9270 c0 -20 5 -30 15 -30 10 0 15 10 15 30 0 20 -5 30 -15 30
-10 0 -15 -10 -15 -30z"/>
<path d="M12888 9270 c2 -16 8 -30 13 -30 5 0 9 14 9 30 0 18 -5 30 -13 30 -9
0 -12 -10 -9 -30z"/>
<path d="M12920 9282 c0 -25 19 -42 47 -42 23 0 48 33 38 50 -11 17 -25 11
-25 -11 0 -14 -5 -19 -17 -17 -10 2 -17 11 -17 21 1 9 -4 17 -12 17 -8 0 -14
-8 -14 -18z"/>
</g>
</svg>
